<svg width="562" height="441" viewBox="0 0 562 441" fill="none" xmlns="http://www.w3.org/2000/svg">
<g clip-path="url(#clip0)">
<path opacity="0.1" d="M548.334 255.643C548.334 255.978 548.334 256.313 548.334 256.643C548.273 262.42 547.917 268.183 547.265 273.931C547.268 273.965 547.268 274 547.265 274.035C547.214 274.513 547.156 274.985 547.099 275.463C547.002 276.27 546.899 277.072 546.785 277.879C545.452 287.706 543.246 297.405 540.192 306.87V306.87C536.101 319.66 530.316 331.893 522.981 343.269C520.725 346.747 518.321 350.113 515.771 353.368C514.41 355.093 513.021 356.778 511.586 358.437C510.579 359.598 509.554 360.74 508.51 361.864L507.858 362.556C502.362 368.351 496.438 373.758 490.132 378.734C479.84 386.928 468.759 394.056 457.501 400.668C456.86 401.047 456.214 401.42 455.568 401.766C455.523 401.798 455.475 401.825 455.425 401.849C440.124 410.734 424.257 418.752 407.91 425.172C390.013 432.218 371.533 437.342 352.573 439.582C326.145 442.702 299.397 440.164 273.129 435.804C251.283 432.199 229.701 427.246 208.518 420.976L205.03 419.928C203.223 419.375 201.418 418.811 199.615 418.236C188.725 414.776 177.956 410.932 167.309 406.704C140.57 396.126 115.025 382.952 91.0735 367.388C88.024 365.419 85.0184 363.405 82.0565 361.348C77.9168 358.485 73.8267 355.537 69.7861 352.506L67.2931 350.65C56.7188 342.697 46.8117 333.959 37.6633 324.515C25.3585 311.653 14.8434 297.144 7.93054 280.581C6.84034 277.978 5.84163 275.326 4.9344 272.624L4.84863 272.355C4.39121 270.982 3.96809 269.609 3.57927 268.181C3.00749 266.138 2.50623 264.069 2.07548 261.975C1.984 261.574 1.90395 261.173 1.82962 260.767C0.46299 253.719 -0.140598 246.555 0.0284994 239.388C0.171505 233.108 0.937346 226.856 2.31563 220.716V220.716C3.72634 214.351 5.90028 208.165 8.79394 202.28V202.28C11.4089 196.989 14.7408 192.053 18.7029 187.601V187.601C21.4871 184.488 24.6182 181.678 28.0402 179.221C34.244 174.784 41.1226 171.692 48.2527 169.248C51.6033 168.095 54.9997 167.084 58.4133 166.145C60.8319 165.475 63.262 164.838 65.6806 164.212L72.8165 162.361C77.3908 161.164 81.965 159.934 86.4707 158.605C98.7526 155.002 110.789 150.642 121.921 144.14C123.682 143.113 125.478 141.987 127.273 140.779C129.56 139.252 131.813 137.594 134.043 135.803C136.296 133.991 138.503 132.053 140.607 129.999C140.933 129.68 141.253 129.362 141.573 129.038C143.289 127.302 144.953 125.485 146.496 123.595C147.251 122.673 147.983 121.734 148.681 120.778C149.647 119.455 150.562 118.109 151.408 116.725C155.651 109.806 158.27 102.172 157.961 94.127C157.916 92.8014 157.792 91.4794 157.589 90.1674C156.846 85.3183 156.131 80.5844 155.605 75.9549C153.398 56.8054 154.33 39.4406 169.293 23.1248C187.899 2.84393 217.1 -1.29132 243.682 0.32873C320.536 4.99667 390.499 47.14 451.983 97.3121C457.301 101.647 462.553 106.04 467.741 110.492C469.049 111.613 470.358 112.74 471.67 113.875C481.39 122.283 490.962 131.004 499.876 140.345C500.596 141.103 501.317 141.861 502.026 142.624C502.46 143.096 502.9 143.563 503.329 144.041C506.108 147.061 508.805 150.155 511.42 153.322C518.425 161.729 524.611 170.737 529.9 180.231C537.999 195.131 543.481 211.213 546.127 227.828V227.828C547.122 233.862 547.777 239.942 548.088 246.044C548.186 247.84 548.248 249.641 548.283 251.437C548.283 252.013 548.283 252.584 548.283 253.161C548.34 253.996 548.34 254.809 548.334 255.643Z" fill="#924914"/>
<path d="M225.271 246.435L216.123 402.833L225.271 402.948L232.704 244.238L225.271 246.435Z" fill="#3F3D56"/>
<path d="M191.536 325.674H78.3229V349.289H191.536V325.674Z" fill="#924914"/>
<path d="M198.969 346.537V361.365H82.0223C77.8826 358.502 73.7924 355.555 69.7518 352.523V346.537H198.969Z" fill="#3F3D56"/>
<path d="M222.321 312.791C222.001 314.213 221.583 315.619 221.143 317.019C219.845 321.067 218.284 325.059 217.981 329.266C217.575 334.823 219.124 341.287 215.122 345.324C214.093 346.367 212.749 347.147 211.828 348.262C211.687 348.436 211.557 348.62 211.44 348.811C210.616 350.118 210.519 351.71 210.508 353.204C210.517 356.39 210.733 359.572 211.154 362.732C212.509 373.606 215.185 384.501 211.668 394.765C211.031 396.546 210.289 398.289 209.444 399.988C207.729 403.612 205.859 407.188 205.299 411.114C204.887 414.025 205.013 417.023 204.99 419.983C203.183 419.43 201.378 418.867 199.575 418.292C188.685 414.832 177.916 410.988 167.269 406.759C167.298 406.611 167.327 406.457 167.349 406.309C168.167 401.421 167.046 396.424 165.686 391.657C162.827 381.558 158.778 371.557 156.383 361.387C155.418 357.414 154.785 353.374 154.49 349.305C154.421 348.393 154.381 347.476 154.376 346.559C154.347 345.362 154.376 344.165 154.427 342.957C154.547 340.546 154.656 337.685 152.649 336.218C151.545 335.422 150.087 335.285 148.801 334.802C146.319 333.873 144.621 331.721 142.654 329.996C141.716 329.122 140.57 328.48 139.316 328.126C138.062 327.772 136.737 327.717 135.455 327.964C122.602 330.793 113.156 341.265 101.194 346.559C100.731 346.768 100.268 346.966 99.799 347.152C98.2517 347.697 96.7791 348.419 95.4135 349.305C94.4539 349.945 93.7579 350.887 93.4465 351.969C93.1435 353.133 93.4065 354.352 93.5552 355.549C93.7958 357.496 93.7089 359.467 93.2979 361.387C93.1428 362.131 92.9385 362.865 92.686 363.583C92.2286 364.885 91.6168 366.159 91.0336 367.428C87.9841 365.458 84.9784 363.444 82.0166 361.387C77.8769 358.524 73.7867 355.577 69.7461 352.545L67.2932 350.651C56.7189 342.698 46.8118 333.959 37.6634 324.516C38.8813 321.221 40.6424 318.156 41.4886 314.779C41.9689 312.84 42.1461 310.825 42.8094 308.941C43.5743 306.988 44.6381 305.156 45.9657 303.504C50.8278 296.992 56.7648 291.286 63.5423 286.612C70.6267 281.735 78.8089 277.825 85.1843 272.289C87.7715 270.114 90.0018 267.576 91.7998 264.76C91.9084 264.59 92.0114 264.409 92.1028 264.211C92.6005 263.217 92.9452 262.159 93.1263 261.07C93.5838 258.61 93.5151 255.908 93.7439 253.546C101.51 254.838 109.428 255.067 117.261 254.227C126.381 253.244 135.301 250.811 144.421 249.867C145.107 249.79 145.799 249.73 146.491 249.675C149.413 249.45 152.34 249.4 155.273 249.433C157.726 249.433 160.179 249.537 162.632 249.614L189.638 250.493C192.628 250.592 195.681 250.702 198.466 251.751C201.771 252.997 204.418 255.479 206.539 258.209C206.808 258.56 207.077 258.912 207.329 259.274C209.074 261.72 210.474 264.377 211.491 267.177C211.6 267.462 211.703 267.726 211.8 268.039C212.057 268.802 212.28 269.571 212.48 270.351C212.635 270.961 212.772 271.57 212.898 272.185C213.527 275.228 213.898 278.336 214.893 281.274C214.962 281.488 215.036 281.702 215.116 281.911C216.311 285.129 218.295 288.012 219.793 291.104C220.874 293.342 221.698 295.686 222.252 298.095C223.372 302.932 223.395 307.944 222.321 312.791V312.791Z" fill="#35323E"/>
<path d="M140.236 116.259C137.823 114.414 134.323 115.765 131.499 116.957C129.13 117.961 126.693 118.807 124.203 119.488C123.693 119.677 123.141 119.732 122.602 119.648C121.458 119.384 120.978 118.083 120.126 117.292C118.645 115.924 116.221 116.248 114.311 116.99C112.401 117.731 110.514 118.802 108.467 118.637C106.283 118.472 104.385 116.924 102.178 116.874C98.2895 116.786 95.0246 121.389 91.3481 120.169C89.1067 119.428 87.3456 116.627 85.1385 117.424C83.4232 118.05 83.2688 120.329 82.2338 121.817C81.016 123.552 78.643 124.041 76.6132 124.81C70.215 127.237 65.9781 134.085 66.8129 140.642C67.276 144.261 69.1 147.578 70.3064 151.033C73.8858 161.077 72.6565 172.406 77.1678 182.094C77.7396 181.578 78.0598 181.385 78.6145 180.875C77.188 183.716 76.9129 186.965 77.8426 189.991C78.3171 191.512 79.089 192.929 79.6723 194.417C80.2781 196.086 80.7671 197.793 81.136 199.524L86.1105 220.602C88.0546 228.839 90.0044 237.077 90.3417 245.512C90.5518 250.997 90.1144 256.487 89.0381 261.877C98.0494 260.444 106.294 256.605 115.426 256.655C118.777 256.655 122.099 257.204 125.421 257.643C135.106 258.945 144.876 259.582 154.656 259.549C156.177 259.632 157.7 259.427 159.139 258.945C160.397 258.428 161.426 257.511 162.615 256.847C164.942 255.529 167.761 255.199 170.443 255.199C182.673 254.985 194.458 259.285 206.608 260.801C211.405 251.13 211.691 239.542 208.009 229.432C206.917 226.428 205.447 223.501 205.013 220.343C204.838 218.402 204.793 216.453 204.876 214.506C204.857 209.522 203.922 204.581 202.114 199.909C201.405 198.08 200.553 196.218 200.627 194.269C200.702 192.319 201.702 190.502 202.686 188.777C204.681 185.262 206.688 181.715 209.507 178.749C212.395 175.685 216.008 173.351 219.582 171.061L228.405 165.372C227.198 158.051 225.643 150.341 222.412 143.608C219.182 136.875 214.35 130.686 207.815 126.748C205.611 125.475 203.305 124.373 200.919 123.453C197.58 122.102 194.103 120.911 190.484 120.708C186.367 120.482 182.313 121.542 178.248 122.201C165.451 124.272 150.39 124.019 140.236 116.259Z" fill="#924914"/>
<path d="M236.707 243.293L232.51 248.384L224.596 257.978L215.448 269.066L212.892 272.163H207.935L85.1785 272.3L8.30228 272.383H4.87158C4.41416 271.01 3.99104 269.637 3.60222 268.209C3.03044 266.166 2.52918 264.098 2.09844 262.004C2.00695 261.603 1.9269 261.202 1.85257 260.795L29.7442 243.282L40.2307 243.227L72.3077 243.052L90.2217 242.953H93.4923H95.545L107.484 242.892L198.477 242.393L203.132 242.365H205.15L210.496 242.338L230.389 242.228L234.208 240.833L234.488 241.119L236.707 243.293Z" fill="#3F3D56"/>
<path d="M234.991 240.547L234.517 241.097L231.395 244.628L224.968 251.915L211.491 267.177L92.1027 264.25L2.07548 262.053C1.984 261.652 1.90395 261.251 1.82962 260.845C0.46299 253.797 -0.140598 246.633 0.0284994 239.466L10.0118 234.556L12.299 233.425L30.0986 224.638L45.7197 216.95L86.465 222.035L95.4877 223.161L99.5702 223.666L105.545 224.413L106.049 224.479L199.747 236.149L210.102 237.439L216.18 238.197L234.911 240.536L234.991 240.547Z" fill="#504F60"/>
<path d="M215.551 266.908L215.454 269.066L214.882 281.252L211.806 348.251L211.154 362.732L209.438 399.988L208.472 421.032L204.984 419.983C203.177 419.43 201.373 418.867 199.569 418.292L207.935 272.213L208.112 269.148L211.794 268.05L215.551 266.908Z" fill="#3F3D56"/>
<path d="M8.5653 266.748L8.308 272.388L7.93062 280.626C6.84042 278.023 5.8417 275.37 4.93447 272.668L4.84871 272.399C4.39128 271.026 3.96816 269.653 3.57935 268.226L8.5653 266.748Z" fill="#3F3D56"/>
<path d="M158.087 183.714C172.613 183.714 184.389 168.47 184.389 149.665C184.389 130.861 172.613 115.617 158.087 115.617C143.56 115.617 131.785 130.861 131.785 149.665C131.785 168.47 143.56 183.714 158.087 183.714Z" fill="#A1616A"/>
<path opacity="0.1" d="M158.087 183.714C172.613 183.714 184.389 168.47 184.389 149.665C184.389 130.861 172.613 115.617 158.087 115.617C143.56 115.617 131.785 130.861 131.785 149.665C131.785 168.47 143.56 183.714 158.087 183.714Z" fill="black"/>
<path d="M161.803 164.218C182.014 164.218 198.397 148.483 198.397 129.071C198.397 109.66 182.014 93.9245 161.803 93.9245C141.593 93.9245 125.209 109.66 125.209 129.071C125.209 148.483 141.593 164.218 161.803 164.218Z" fill="#A1616A"/>
<path d="M162.529 74.9013C160.295 75.0724 158.077 75.3972 155.891 75.8733C150.105 77.2243 145.101 80.2228 140.23 83.1663C138.046 84.4898 135.799 85.8682 134.443 87.8123C132.008 91.2995 132.951 95.7368 131.584 99.6085C130.875 101.596 129.572 103.381 128.468 105.232C125.432 110.306 123.843 115.88 122.282 121.4C121.961 122.542 121.87 124.09 123.168 124.53C123.915 124.679 124.693 124.594 125.386 124.288C129.486 122.987 134.695 122.613 137.737 125.255C140.779 127.896 140.521 132.581 144.141 134.591C148.286 136.914 154.759 134.107 158.521 136.848C160.134 138.023 160.717 139.907 162.038 141.323C165.114 144.618 171.032 144.459 175.955 143.795C178.779 143.41 182.244 143.152 183.96 145.058C184.783 145.958 185.018 147.194 185.972 148.007C187.688 149.479 190.827 148.732 192.502 147.222C194.178 145.711 194.978 143.668 196.373 141.971C199.089 138.676 203.864 136.881 206.665 133.624C209.01 130.878 209.719 127.44 210.359 124.123L212.743 111.827C213.71 106.841 214.59 101.393 211.668 96.9999C210.628 95.4183 209.135 94.0564 208.238 92.4198C207.637 91.3215 207.3 90.1627 206.602 89.1248C205.775 88.0435 204.787 87.0851 203.669 86.2801L198.026 81.7934C196.096 80.1713 194.033 78.702 191.856 77.4C183.8 72.8913 171.735 74.0776 162.529 74.9013Z" fill="#464353"/>
<path d="M41.9975 165.437C40.6423 166.821 39.3901 168.315 37.9378 169.611C36.6602 170.702 35.3242 171.729 33.9353 172.687C31.6939 174.297 29.5021 175.965 27.3598 177.689C25.1248 179.387 23.1024 181.327 21.3332 183.472C18.2799 187.41 16.8333 192.308 13.9744 196.378C11.4471 199.986 7.88488 202.836 5.31758 206.417C4.19129 207.922 3.35473 209.609 2.84747 211.398C2.46884 213.129 2.2981 214.896 2.33859 216.664C2.28713 219.564 2.24139 222.496 2.85891 225.335C3.47644 228.175 4.83156 230.964 7.153 232.826C9.30862 234.556 12.0932 235.352 14.8206 236.011C16.2272 236.346 17.7481 236.659 19.0861 236.127C20.0652 235.652 20.915 234.963 21.5677 234.117L28.5263 226.428C33.1806 221.266 38.0179 215.994 44.4047 212.974C46.4059 212.035 48.5158 211.326 50.5228 210.415C59.0309 206.477 65.0461 198.415 67.3789 189.628C67.9507 187.481 68.3167 185.29 68.6883 183.099L69.6947 177.091C69.7719 176.79 69.7719 176.475 69.6947 176.174C69.5371 175.835 69.2834 175.546 68.9628 175.339C64.1158 171.579 59.5777 167.467 55.3886 163.038C54.3937 161.983 53.4617 160.539 52.3124 159.655C50.8715 158.556 50.9802 158.639 49.2477 159.655C46.5825 161.275 44.1458 163.219 41.9975 165.437V165.437Z" fill="#A1616A"/>
<path d="M89.5984 205.417C89.5405 205.289 89.4564 205.174 89.3511 205.079C89.2458 204.983 89.1215 204.909 88.9857 204.861C88.8498 204.813 88.7052 204.791 88.5605 204.798C88.4158 204.805 88.274 204.84 88.1437 204.901C88.0133 204.961 87.8971 205.047 87.802 205.152C87.7069 205.257 87.6349 205.379 87.5903 205.511C87.5456 205.644 87.5293 205.783 87.5423 205.922C87.5553 206.06 87.5973 206.195 87.6658 206.318L87.094 206.587L104.145 240.152L107.226 238.708L90.1759 205.12L89.5984 205.417Z" fill="#3F3D56"/>
<path opacity="0.04" d="M41.9975 165.437C40.6423 166.821 39.3901 168.315 37.9378 169.611C36.6602 170.702 35.3242 171.729 33.9353 172.687C31.6939 174.297 29.5021 175.965 27.3598 177.689C25.1248 179.387 23.1024 181.327 21.3332 183.472C18.2799 187.41 16.8333 192.308 13.9744 196.378C11.4471 199.986 7.88488 202.836 5.31758 206.417C4.19129 207.922 3.35473 209.609 2.84747 211.398C2.46884 213.129 2.2981 214.896 2.33859 216.664C2.28713 219.564 2.24139 222.496 2.85891 225.335C3.47644 228.175 4.83156 230.964 7.153 232.826C9.30862 234.556 12.0932 235.352 14.8206 236.011C16.2272 236.346 17.7481 236.659 19.0861 236.127C20.0652 235.652 20.915 234.963 21.5677 234.117L28.5263 226.428C33.1806 221.266 38.0179 215.994 44.4047 212.974C46.4059 212.035 48.5158 211.326 50.5228 210.415C59.0309 206.477 65.0461 198.415 67.3789 189.628C67.9507 187.481 68.3167 185.29 68.6883 183.099L69.6947 177.091C69.7719 176.79 69.7719 176.475 69.6947 176.174C69.5371 175.835 69.2834 175.546 68.9628 175.339C64.1158 171.579 59.5777 167.467 55.3886 163.038C54.3937 161.983 53.4617 160.539 52.3124 159.655C50.8715 158.556 50.9802 158.639 49.2477 159.655C46.5825 161.275 44.1458 163.219 41.9975 165.437V165.437Z" fill="black"/>
<path d="M239.114 227.296C239.057 230.8 238.914 234.408 237.399 237.604C236.747 238.988 235.735 240.35 234.22 240.806C233.303 241.009 232.354 241.043 231.424 240.904C220.206 239.958 208.902 240.819 197.98 243.453C200.896 237.851 199.221 231.135 200.027 224.918C200.25 223.221 200.656 221.552 200.81 219.849C201.382 213.808 198.689 207.943 197.454 201.979C196.382 196.817 196.382 191.501 197.454 186.339C197.664 185.01 198.14 183.733 198.855 182.577C199.692 181.453 200.793 180.533 202.068 179.892C206.7 177.36 212.16 177.069 217.363 177.404C220.868 177.629 227.896 177.311 230.817 179.381C234.014 181.649 235.026 189.266 235.889 192.786C237.182 198.185 238.061 203.668 238.519 209.19C239.08 215.209 239.2 221.255 239.114 227.296Z" fill="#A1616A"/>
<path d="M34.2956 239.455L54.8798 252.635L147.509 249.34L86.3278 239.455H34.2956Z" fill="white"/>
<path d="M61.4381 134.733C58.0588 137.595 55.1942 140.966 51.9922 144.014C47.6009 148.199 42.6093 151.758 37.6405 155.3C39.422 155.778 41.0437 156.692 42.3467 157.954C43.6497 159.215 44.5894 160.779 45.0737 162.494C45.2909 163.301 45.3996 164.141 45.6454 164.932C46.2172 166.805 47.4751 168.419 48.8246 169.875C54.6224 176.152 62.736 180.798 66.1553 188.547C66.2669 188.924 66.5089 189.253 66.8414 189.48C67.1196 189.598 67.4287 189.633 67.7277 189.579C70.821 189.266 73.1882 186.872 75.1609 184.543C79.2777 179.601 82.8514 174.142 84.8812 168.112C86.911 162.082 87.2369 155.415 85.0241 149.44C83.9206 146.464 82.2167 143.729 80.5242 141.021C79.0414 138.653 77.5624 136.288 76.0872 133.926C75.3153 132.679 74.3318 130.148 72.8166 129.533C69.546 128.182 63.5365 132.718 61.4381 134.733Z" fill="#924914"/>
<path d="M229.851 170.226L234.717 181.21C229.42 179.432 223.758 178.891 218.201 179.631C212.643 180.371 207.348 182.371 202.754 185.466C199.981 187.371 197.437 189.766 196.185 192.808C195.566 192.921 194.928 192.864 194.342 192.643C193.756 192.423 193.247 192.048 192.874 191.561C192.142 190.576 191.718 189.41 191.65 188.201C191.199 183.983 192.862 179.848 194.509 175.905C195.275 174.059 196.064 172.176 197.425 170.677C198.786 169.177 200.593 168.189 202.4 167.255C208.164 164.193 214.201 161.631 220.44 159.6C223.07 158.782 225.826 158.798 227.301 161.159C229.011 163.977 228.513 167.228 229.851 170.226Z" fill="#924914"/>
<path d="M34.4156 203.182C35.6335 204.116 36.7028 205.219 37.955 206.109C39.2792 206.992 40.6884 207.752 42.1633 208.377L47.8011 210.98C49.5481 211.852 51.3763 212.566 53.2616 213.111C55.6745 213.731 58.2075 213.792 60.6319 214.369C63.6909 215.093 66.4869 216.604 69.5002 217.477C72.5135 218.35 76.0414 218.493 78.5573 216.675C80.1297 215.538 81.319 213.66 83.2688 213.38C84.5267 213.221 85.7389 213.803 86.8596 214.369L101.532 221.777C103.51 222.776 105.603 223.886 106.638 225.791C107.672 227.697 106.975 230.591 104.796 231.085C104.037 231.169 103.274 231.211 102.509 231.212C101.755 231.299 100.931 231.728 100.828 232.458C100.824 232.912 100.949 233.358 101.188 233.749C101.846 235.199 102.04 236.934 101.274 238.34C100.508 239.746 98.6269 240.619 97.1231 239.987C97.3804 242.113 94.9732 243.601 92.829 244.167C87.4199 245.589 81.6849 244.716 76.1558 243.815C73.983 243.464 71.7759 243.101 69.7976 242.168C68.8484 241.723 67.9679 241.152 67.0073 240.74C64.3713 239.614 61.3752 239.762 58.4934 239.812C45.1652 240.037 31.9512 237.664 18.846 235.303C16.4159 234.864 13.9172 234.397 11.8416 233.106C7.83914 230.602 6.35251 225.462 7.01006 220.915C7.66761 216.368 10.0691 212.249 12.4306 208.251L15.4896 203.072C15.8895 202.279 16.4492 201.569 17.1363 200.985C21.6363 197.685 30.5618 200.205 34.4156 203.182Z" fill="#A1616A"/>
<path opacity="0.04" d="M34.4156 203.182C35.6335 204.116 36.7028 205.219 37.955 206.109C39.2792 206.992 40.6884 207.752 42.1633 208.377L47.8011 210.98C49.5481 211.852 51.3763 212.566 53.2616 213.111C55.6745 213.731 58.2075 213.792 60.6319 214.369C63.6909 215.093 66.4869 216.604 69.5002 217.477C72.5135 218.35 76.0414 218.493 78.5573 216.675C80.1297 215.538 81.319 213.66 83.2688 213.38C84.5267 213.221 85.7389 213.803 86.8596 214.369L101.532 221.777C103.51 222.776 105.603 223.886 106.638 225.791C107.672 227.697 106.975 230.591 104.796 231.085C104.037 231.169 103.274 231.211 102.509 231.212C101.755 231.299 100.931 231.728 100.828 232.458C100.824 232.912 100.949 233.358 101.188 233.749C101.846 235.199 102.04 236.934 101.274 238.34C100.508 239.746 98.6269 240.619 97.1231 239.987C97.3804 242.113 94.9732 243.601 92.829 244.167C87.4199 245.589 81.6849 244.716 76.1558 243.815C73.983 243.464 71.7759 243.101 69.7976 242.168C68.8484 241.723 67.9679 241.152 67.0073 240.74C64.3713 239.614 61.3752 239.762 58.4934 239.812C45.1652 240.037 31.9512 237.664 18.846 235.303C16.4159 234.864 13.9172 234.397 11.8416 233.106C7.83914 230.602 6.35251 225.462 7.01006 220.915C7.66761 216.368 10.0691 212.249 12.4306 208.251L15.4896 203.072C15.8895 202.279 16.4492 201.569 17.1363 200.985C21.6363 197.685 30.5618 200.205 34.4156 203.182Z" fill="black"/>
<path d="M208.958 212.672C205.979 214.023 202.56 214.154 199.449 215.192C196.339 216.23 193.697 218.097 190.844 219.619C183.411 223.606 174.834 225.11 166.412 226.544C161.306 227.422 156.12 228.301 150.974 228.092C144.009 227.807 137.319 225.577 130.572 223.897C123.825 222.216 116.627 221.085 109.942 222.974C106.452 223.995 103.261 225.791 100.629 228.217C97.9961 230.644 95.9958 233.632 94.7902 236.939C93.3893 240.888 93.1949 245.144 93.4637 249.307C94.8703 250.301 96.8372 248.922 97.6034 247.412C98.3696 245.902 98.787 244.051 100.274 243.172C102.852 244.013 103.481 247.313 105.608 248.944C106.935 249.966 108.707 250.235 110.394 250.465L119.085 251.652C121.178 251.937 123.608 252.129 125.123 250.713C125.861 250.026 126.267 249.065 126.942 248.329C128.325 246.857 130.635 246.605 132.694 246.802C139.121 247.418 145.147 251.421 151.528 250.471C153.724 250.147 155.765 249.246 157.858 248.538C170.26 244.331 184.04 246.89 196.945 244.479C201.868 243.562 206.608 241.937 211.291 240.223C213.835 239.295 216.408 238.323 218.581 236.753C220.64 235.232 222.263 233.235 223.299 230.949C224.335 228.662 224.75 226.16 224.505 223.677C224.026 219.893 222.061 216.428 219.01 213.99C218.004 213.166 216.683 211.59 215.476 211.073C213.172 210.101 210.914 211.787 208.958 212.672Z" fill="#A1616A"/>
<g opacity="0.1">
<path opacity="0.1" d="M192.251 142.515C191.296 141.702 191.061 140.467 190.238 139.566C188.523 137.66 185.058 137.919 182.233 138.303C177.31 138.967 171.369 139.121 168.316 135.832C166.995 134.415 166.412 132.537 164.799 131.356C161.037 128.61 154.564 131.422 150.419 129.099C146.8 127.072 147.034 122.372 144.015 119.763C140.996 117.154 135.764 117.495 131.665 118.796C130.971 119.103 130.193 119.187 129.446 119.038C128.148 118.599 128.24 117.05 128.56 115.908C130.121 110.389 131.71 104.815 134.746 99.7403C135.85 97.8896 137.154 96.1047 137.863 94.1168C139.103 90.635 138.469 86.6975 140.098 83.4025C138.349 84.5008 136.668 85.698 135.587 87.2466C133.151 90.7339 134.095 95.1712 132.728 99.0428C132.019 101.031 130.715 102.816 129.612 104.666C126.576 109.741 124.986 115.315 123.425 120.834C123.105 121.976 123.013 123.525 124.311 123.964C125.059 124.113 125.836 124.029 126.53 123.723C130.63 122.421 135.839 122.048 138.88 124.689C141.922 127.331 141.665 132.015 145.284 134.025C149.43 136.348 155.902 133.542 159.665 136.282C161.277 137.457 161.86 139.341 163.181 140.758C166.257 144.053 172.175 143.894 177.098 143.229C179.923 142.845 183.388 142.586 185.103 144.492C185.927 145.393 186.161 146.628 187.116 147.441C188.831 148.913 191.971 148.166 193.646 146.656C194.72 145.581 195.639 144.373 196.379 143.064C194.892 143.498 193.308 143.432 192.251 142.515Z" fill="black"/>
<path opacity="0.1" d="M202.669 136.474C202.3 136.93 201.959 137.405 201.645 137.897C203.841 136.392 206.168 134.986 207.809 133.069C208.235 132.573 208.617 132.044 208.952 131.488C206.671 133.058 204.292 134.503 202.669 136.474Z" fill="black"/>
</g>
<path d="M318.186 245.221L319.901 402.833L327.906 401.734L326.191 245.221H318.186Z" fill="#3F3D56"/>
<path d="M366.216 273.778L367.931 431.39L375.936 430.291L374.221 273.778H366.216Z" fill="#3F3D56"/>
<path d="M515.754 353.396L515.72 350.37V348.569L515.417 320.847L514.942 277.507L514.862 273.767H506.857L506.897 277.369L507.149 300.583L507.257 310.633L507.349 318.771L507.498 332.841L507.589 341.139V342.018L507.709 352.924L507.812 362.54L508.464 361.848C509.512 360.724 510.538 359.582 511.54 358.421L515.754 353.396Z" fill="#3F3D56"/>
<path d="M357.353 299.314L352.779 305.882L357.353 335.806L396.234 346.027H459.13L496.868 348.218L514.845 336.4L511.735 316.102L498.012 299.314H357.353Z" fill="#924914"/>
<path d="M352.779 305.882L350.492 324.126C350.492 324.126 338.484 359.893 435.116 357.702C531.747 355.511 515.165 348.212 515.165 348.212L514.594 327.047C514.594 327.047 517.961 337.064 468.851 335.708C419.74 334.351 373.935 329.969 373.935 329.969C373.935 329.969 356.781 332.885 352.779 305.882Z" fill="#3F3D56"/>
<path d="M433.286 142.361C427.774 144.772 423.6 149.446 420.804 154.613C418.008 159.781 416.435 165.454 414.886 171.088C413.251 177.03 411.61 182.989 410.763 189.079C409.254 199.909 410.386 211.293 415.566 221.019C420.747 230.745 430.318 238.592 441.525 240.465C445.854 241.195 450.302 241.047 454.676 240.613C462.583 239.809 470.371 238.161 477.896 235.698C485.758 233.145 493.941 229.213 497.44 221.969C499.47 217.768 499.641 212.979 499.544 208.355C499.274 195.752 497.293 183.237 493.649 171.127C492.591 167.612 491.362 164.07 489.12 161.11C486.879 158.15 483.814 155.981 480.687 153.971C467.313 145.321 449.736 135.178 433.286 142.361Z" fill="#FBBEBE"/>
<path opacity="0.05" d="M433.286 142.361C427.774 144.772 423.6 149.446 420.804 154.613C418.008 159.781 416.435 165.454 414.886 171.088C413.251 177.03 411.61 182.989 410.763 189.079C409.254 199.909 410.386 211.293 415.566 221.019C420.747 230.745 430.318 238.592 441.525 240.465C445.854 241.195 450.302 241.047 454.676 240.613C462.583 239.809 470.371 238.161 477.896 235.698C485.758 233.145 493.941 229.213 497.44 221.969C499.47 217.768 499.641 212.979 499.544 208.355C499.274 195.752 497.293 183.237 493.649 171.127C492.591 167.612 491.362 164.07 489.12 161.11C486.879 158.15 483.814 155.981 480.687 153.971C467.313 145.321 449.736 135.178 433.286 142.361Z" fill="black"/>
<path d="M427.093 211.485C428.689 213.592 430.618 215.445 432.811 216.977C438.255 220.591 445.242 221.079 451.852 221.277C457.158 221.431 463.242 221.14 466.569 217.164C468.067 215.374 468.742 213.089 469.348 210.865C473.089 197.207 475.745 183.297 477.296 169.254L492.437 169.304C498.99 196.251 498.452 224.265 497.88 251.937L497.051 292.29L487.297 291.296C464.134 288.94 440.936 286.584 417.648 286.178C404.002 285.937 390.353 286.37 376.754 287.474L397.995 226.813C400.751 218.927 403.536 210.936 404.182 202.649C405.114 190.628 401.603 177.937 406.469 166.816C406.858 165.921 407.35 164.993 408.236 164.526C409.122 164.059 410.243 164.174 411.261 164.301C413.182 164.548 419.054 164.301 420.449 165.481C422.508 167.195 421.147 167.453 420.421 170.215C419.123 175.158 417.893 179.732 417.911 184.884C417.928 194.236 420.947 204.11 427.093 211.485Z" fill="#924914"/>
<path d="M515.754 353.396C518.304 350.145 520.708 346.779 522.964 343.297C521.821 340.947 520.563 338.651 519.562 336.251C518.03 332.572 517.149 328.673 516.28 324.801C515.983 323.483 515.687 322.165 515.394 320.847C512.192 306.508 509.184 291.966 508.561 277.43C508.504 276.222 508.468 275.013 508.453 273.805C508.453 273.629 508.453 273.459 508.453 273.256C508.453 271.933 508.453 270.609 508.453 269.291C508.521 265.996 508.738 262.674 509.133 259.368C509.207 258.719 509.293 258.071 509.385 257.423C509.385 257.281 509.419 257.143 509.442 257.001L548.323 255.639L551.594 255.523C553.841 255.446 556.219 255.326 558.072 254.101C561.188 252.047 561.554 247.835 561.503 244.216C561.313 235.069 560.234 225.959 558.278 217.005C556.803 210.272 554.698 203.391 549.975 198.217C546.099 193.967 540.484 190.875 538.465 185.587C537.716 183.62 537.528 181.462 536.556 179.584C535.584 177.706 533.977 176.328 532.462 174.878C527.129 169.803 522.705 163.917 519.368 157.458C517.052 152.977 514.542 148.034 511.517 144.937C511.369 144.778 511.22 144.629 511.066 144.487C508.493 142.043 505.548 140.972 502.06 142.636C501.433 142.938 500.836 143.295 500.276 143.701V143.701C499.033 144.614 497.896 145.652 496.885 146.799C493.362 150.689 490.271 154.923 487.662 159.43C485.828 162.603 484.253 165.908 482.951 169.315C481.923 172.006 481.073 174.758 480.407 177.552C479.915 179.623 479.526 181.715 479.217 183.813C478.074 191.699 478.074 199.739 478.234 207.724C478.405 215.06 478.743 222.414 479.435 229.723C479.606 231.492 479.797 233.258 480.006 235.023C480.426 238.512 480.944 241.99 481.562 245.457C481.807 246.781 482.059 248.104 482.339 249.422C482.408 249.774 482.482 250.125 482.556 250.471L482.591 250.619C483.346 253.683 483.932 256.783 484.346 259.906C484.392 260.297 484.426 260.687 484.449 261.075C484.545 262.87 484.53 264.669 484.403 266.463C484.272 268.583 484.066 270.697 483.963 272.817C483.963 273.19 483.963 273.558 483.923 273.915C483.894 274.986 483.923 276.057 483.923 277.128C484.039 279.69 484.356 282.24 484.872 284.756C485.837 289.436 487.503 293.957 489.818 298.177C490.035 298.573 490.258 298.963 490.481 299.347C493.38 304.323 497.04 308.886 499.721 313.977C502.035 318.558 503.762 323.391 504.867 328.371C505.249 330.015 505.611 331.662 505.954 333.313C506.486 335.949 506.96 338.607 507.446 341.265C507.492 341.529 507.543 341.814 507.595 342.056C508.241 345.582 508.921 349.091 509.796 352.534C510.305 354.539 510.877 356.516 511.546 358.46L515.754 353.396Z" fill="#464353"/>
<path d="M508.115 310.111C508.115 310.605 508.081 311.099 508.058 311.599C507.956 314.009 507.725 316.412 507.366 318.799C506.892 322.057 506.062 325.258 504.89 328.349C504.113 330.381 503.125 332.333 501.94 334.175C500.889 335.811 499.658 337.334 498.269 338.717C494.838 342.144 489.898 343.237 485.118 344.681C482.919 345.293 480.793 346.127 478.777 347.169C478.417 347.361 478.062 347.57 477.719 347.789L471.738 351.595C469.874 352.776 467.97 354 466.689 355.752C466.48 356.05 466.289 356.36 466.118 356.68C465.308 358.293 464.716 359.998 464.357 361.755C461.246 374.199 458.13 386.654 455.997 399.285C455.854 400.12 455.717 400.96 455.568 401.8L455.517 402.064C455.491 402.001 455.46 401.941 455.425 401.883C440.124 410.768 424.257 418.786 407.91 425.206L404.359 396.649C403.989 394.328 403.867 391.976 403.993 389.631C404.331 385.935 405.897 382.431 406.321 378.746C406.721 375.139 406.012 371.497 404.279 368.273C403.605 367.021 402.758 365.791 402.604 364.391C402.45 362.99 403.29 361.711 404.754 361.568C405.897 360.349 405.989 358.685 405.652 357.037C405.472 356.177 405.204 355.337 404.851 354.528C403.879 352.232 402.65 349.733 403.485 347.388C403.705 346.963 403.804 346.489 403.77 346.016C403.776 345.987 403.776 345.957 403.77 345.928C403.576 345.313 402.816 345.044 402.421 344.522C401.678 343.55 402.421 342.226 402.878 341.106C403.323 339.902 403.581 338.642 403.645 337.366C403.708 336.658 403.753 335.944 403.833 335.241C403.945 334.29 404.122 333.347 404.365 332.418C405.754 327.157 409.095 322.564 413.759 319.502C415.984 318.063 418.46 317.014 420.73 315.657C423.055 314.152 425.274 312.501 427.374 310.715C432.409 306.688 437.645 302.891 443.081 299.325C448.925 295.491 454.98 291.961 461.217 288.748C462.552 288.056 463.886 287.382 465.22 286.727C466.672 285.995 468.134 285.301 469.606 284.646C474.317 282.488 479.663 283.295 484.872 284.734C487.056 285.332 489.212 286.046 491.293 286.694C493.326 287.329 495.281 288.172 497.125 289.209C501.74 291.812 505.554 295.657 507.137 300.511C507.14 300.542 507.14 300.574 507.137 300.605C508.144 303.647 508.207 306.909 508.115 310.111Z" fill="#F86D70"/>
<path opacity="0.1" d="M508.115 310.111C508.115 310.605 508.081 311.099 508.058 311.599C507.956 314.009 507.725 316.412 507.366 318.799C506.892 322.057 506.062 325.258 504.89 328.349C504.113 330.381 503.125 332.333 501.94 334.175C500.889 335.811 499.658 337.334 498.269 338.717C494.838 342.144 489.898 343.237 485.118 344.681C482.919 345.293 480.793 346.127 478.777 347.169C478.417 347.361 478.062 347.57 477.719 347.789L471.738 351.595C469.874 352.776 467.97 354 466.689 355.752C466.48 356.05 466.289 356.36 466.118 356.68C465.308 358.293 464.716 359.998 464.357 361.755C461.246 374.199 458.13 386.654 455.997 399.285C455.854 400.12 455.717 400.96 455.568 401.8L455.517 402.064C455.491 402.001 455.46 401.941 455.425 401.883C440.124 410.768 424.257 418.786 407.91 425.206L404.359 396.649C403.989 394.328 403.867 391.976 403.993 389.631C404.331 385.935 405.897 382.431 406.321 378.746C406.721 375.139 406.012 371.497 404.279 368.273C403.605 367.021 402.758 365.791 402.604 364.391C402.45 362.99 403.29 361.711 404.754 361.568C405.897 360.349 405.989 358.685 405.652 357.037C405.472 356.177 405.204 355.337 404.851 354.528C403.879 352.232 402.65 349.733 403.485 347.388C403.705 346.963 403.804 346.489 403.77 346.016C403.776 345.987 403.776 345.957 403.77 345.928C403.576 345.313 402.816 345.044 402.421 344.522C401.678 343.55 402.421 342.226 402.878 341.106C403.323 339.902 403.581 338.642 403.645 337.366C403.708 336.658 403.753 335.944 403.833 335.241C403.945 334.29 404.122 333.347 404.365 332.418C405.754 327.157 409.095 322.564 413.759 319.502C415.984 318.063 418.46 317.014 420.73 315.657C423.055 314.152 425.274 312.501 427.374 310.715C432.409 306.688 437.645 302.891 443.081 299.325C448.925 295.491 454.98 291.961 461.217 288.748C462.552 288.056 463.886 287.382 465.22 286.727C466.672 285.995 468.134 285.301 469.606 284.646C474.317 282.488 479.663 283.295 484.872 284.734C487.056 285.332 489.212 286.046 491.293 286.694C493.326 287.329 495.281 288.172 497.125 289.209C501.74 291.812 505.554 295.657 507.137 300.511C507.14 300.542 507.14 300.574 507.137 300.605C508.144 303.647 508.207 306.909 508.115 310.111Z" fill="black"/>
<path d="M453.824 219.146C453.766 219.019 453.682 218.904 453.577 218.808C453.472 218.713 453.347 218.639 453.212 218.59C453.076 218.542 452.931 218.521 452.786 218.527C452.642 218.534 452.5 218.569 452.37 218.63C452.239 218.691 452.123 218.776 452.028 218.881C451.933 218.986 451.861 219.108 451.816 219.241C451.772 219.373 451.755 219.513 451.768 219.651C451.781 219.79 451.823 219.924 451.892 220.047L451.32 220.316L468.37 253.881L471.452 252.437L454.402 218.85L453.824 219.146Z" fill="#3F3D56"/>
<path d="M475.14 183.988C495.351 183.988 511.735 168.253 511.735 148.842C511.735 129.43 495.351 113.695 475.14 113.695C454.93 113.695 438.546 129.43 438.546 148.842C438.546 168.253 454.93 183.988 475.14 183.988Z" fill="#FBBEBE"/>
<path d="M523.439 127.083C523.268 124.289 522.835 121.516 522.147 118.796C519.997 109.916 516.069 101.174 509.304 94.7977C508.888 93.2389 508.39 91.7011 507.812 90.1902C507.801 90.1528 507.788 90.1161 507.772 90.0804C505.754 84.7578 502.837 79.7908 499.138 75.3791C496.994 72.8199 494.215 70.2938 490.796 70.1949C489.835 70.162 488.817 70.3212 487.937 69.8984C487.289 69.4962 486.744 68.9595 486.342 68.3277C484.648 66.2726 482.403 64.7009 479.847 63.7824C477.292 62.8639 474.523 62.6335 471.841 63.1161L471.487 63.1875C471.287 63.2259 471.086 63.2699 470.915 63.3193C470.743 63.3687 470.435 63.4511 470.194 63.5225C470.458 63.9399 470.715 64.3627 470.966 64.7911C471.645 65.9517 472.274 67.1379 472.853 68.3497C473.334 69.3602 473.778 70.3871 474.186 71.4305C468.33 72.0731 463.562 76.0655 459.205 79.8658L448.947 88.8063C448.928 88.8214 448.911 88.8379 448.896 88.8557L448.598 89.1303C448.524 89.2017 448.45 89.2731 448.381 89.35C448.353 89.3729 448.328 89.3987 448.307 89.4269C448.221 89.5147 448.141 89.6081 448.061 89.7014C447.918 89.8744 447.79 90.058 447.678 90.2506C447.622 90.333 447.572 90.4193 447.529 90.5087C447.513 90.5351 447.5 90.5626 447.489 90.5911C447.452 90.666 447.419 90.743 447.392 90.8217C447.389 90.8326 447.389 90.8438 447.392 90.8547C447.376 90.8997 447.362 90.9455 447.352 90.992C447.235 91.3784 447.27 91.7926 447.449 92.1562L454.213 92.2276H455.008C455.042 93.0953 455.071 93.9685 455.105 94.8362C454.032 95.6078 453.001 96.4327 452.018 97.3074C450.945 98.2611 449.938 99.281 449.004 100.361C442.903 107.44 439.718 116.583 439.398 125.787C439.398 126.073 439.398 126.337 439.398 126.633C439.398 127.473 439.398 128.314 439.398 129.148C439.398 129.697 439.45 130.247 439.495 130.796C439.498 131.511 439.695 132.213 440.067 132.833C440.116 132.902 440.169 132.969 440.227 133.031C440.57 133.389 440.982 133.679 441.44 133.888L441.931 134.118C442.177 134.234 442.412 134.343 442.64 134.47C444.796 135.64 446.071 137.897 448.032 139.346C448.147 139.429 448.261 139.511 448.375 139.583L448.633 139.747L448.793 139.846L449.01 139.967C449.152 140.05 449.299 140.125 449.45 140.192V140.192L449.725 140.324H449.77C449.999 140.423 450.228 140.516 450.462 140.599L450.788 140.708L450.885 140.741C450.977 140.769 451.074 140.802 451.171 140.824C451.366 140.879 451.556 140.928 451.743 140.972L452.315 141.093C452.538 141.131 452.767 141.17 452.995 141.197L453.333 141.241L453.676 141.274C454.221 141.322 454.77 141.349 455.322 141.356C457.057 141.346 458.789 141.231 460.508 141.01L475.1 139.363C478.411 138.995 481.79 138.627 485.055 139.275C487.823 139.824 490.373 141.087 493.06 141.982C493.666 142.186 494.272 142.372 494.884 142.532C495.107 142.592 495.336 142.658 495.565 142.713L495.879 142.79L496.611 142.96C496.874 143.02 497.137 143.081 497.4 143.13C497.772 143.207 498.138 143.273 498.509 143.339C498.761 143.388 499.018 143.427 499.275 143.471H499.327L500.059 143.581H500.236L500.779 143.652C501.042 143.69 501.305 143.723 501.574 143.751C502.157 143.82 502.74 143.881 503.324 143.932C504.267 144.02 505.216 144.086 506.183 144.141L507.132 144.196L508.081 144.24L510.94 144.36H511.066H511.466C512.654 144.44 513.849 144.381 515.022 144.185C515.228 144.146 515.428 144.102 515.628 144.047C515.829 143.992 515.994 143.937 516.2 143.872C518.344 143.081 519.911 141.263 520.997 139.319C521.226 138.907 521.438 138.495 521.632 138.072C521.827 137.649 522.004 137.221 522.164 136.793C522.364 136.244 522.536 135.722 522.684 135.173C522.73 135.024 522.77 134.876 522.804 134.722C522.839 134.569 522.919 134.267 522.964 134.036C523.107 133.404 523.216 132.767 523.296 132.125C523.296 131.922 523.347 131.713 523.37 131.51C523.422 130.961 523.462 130.45 523.485 129.912C523.485 129.505 523.485 129.093 523.485 128.682C523.479 128.237 523.439 127.649 523.439 127.083ZM508.778 94.298C508.315 93.8806 507.841 93.4797 507.36 93.1008C507.895 93.4247 508.372 93.8289 508.773 94.298H508.778Z" fill="#464353"/>
<path d="M404.908 146.908C400.603 146.398 396.332 144.585 392.083 145.475C389.424 146.024 387.137 147.611 385.01 149.242C377.095 155.336 370.364 162.726 365.129 171.072C364.242 172.32 363.618 173.723 363.294 175.202C363.019 176.915 363.505 178.656 364.083 180.298C367.994 191.397 376.359 200.667 380.167 211.798C384.17 223.507 382.78 236.302 379.83 248.296C376.173 263.103 370.229 277.301 362.196 290.418C361.105 292.368 359.739 294.164 358.136 295.755C356.055 297.678 353.259 299.05 352.024 301.566C351.452 302.664 351.286 303.916 350.881 305.091C349.737 308.386 346.97 311.209 346.701 314.685C346.501 317.338 347.81 319.848 348.605 322.374C349.945 326.714 349.803 331.352 348.199 335.609C345.3 343.242 337.718 350.184 339.919 358.031C344.831 356.675 350.274 354.912 352.59 350.535C353.408 348.987 353.814 347.141 355.192 346.01C357.942 343.764 362.625 345.796 365.547 343.731C367.754 342.16 367.834 338.942 366.85 336.471C365.867 334 364.174 331.825 363.42 329.282C362.105 324.697 364.209 319.848 363.82 315.108C363.637 312.912 362.934 310.808 362.882 308.623C362.785 304.377 365.232 300.385 368.486 297.502C371.739 294.619 375.759 292.708 379.716 290.824L394.673 283.685C400.1 281.104 406.046 277.957 407.824 272.399C408.499 270.318 408.505 268.099 408.539 265.925C409.048 232.694 417.716 200.134 426.333 167.947C427.671 162.961 429.032 157.952 431.022 153.164C433.011 148.375 436.905 144.531 438.889 140.082C427.379 138.786 416.864 148.347 404.908 146.908Z" fill="#464353"/>
<path d="M487.365 355.379C488.686 363.067 489.492 370.92 490.121 378.735C479.829 386.929 468.748 394.057 457.489 400.669C456.849 401.048 456.203 401.421 455.557 401.767L455.505 402.031C455.48 401.968 455.449 401.908 455.414 401.85C454.54 400.037 453.013 398.589 451.114 397.775C446.894 389.263 442.678 380.751 438.466 372.238C436.179 367.642 433.892 363.001 432.748 358.042C432.748 357.938 432.697 357.828 432.68 357.724C431.811 353.88 431.611 349.887 431.033 345.994C430.74 343.764 430.218 341.567 429.472 339.437C428.786 337.542 427.843 335.702 427.008 333.851C425.979 331.567 425.115 329.255 425.075 326.789C425.075 326.004 425.127 325.142 424.726 324.483C424.298 323.915 423.77 323.425 423.165 323.033C422.411 322.39 421.838 321.573 421.502 320.66C421.166 319.746 421.077 318.766 421.244 317.81C417.813 317.98 415.881 321.523 414.503 324.527C413.25 327.465 411.605 330.234 409.608 332.764C408.153 334.572 406.303 336.051 404.188 337.097C403.999 337.185 403.81 337.273 403.616 337.35C398.842 339.371 393.267 338.657 388.092 337.745C383.569 336.949 378.892 335.96 375.256 333.258L374.867 332.962C373.79 332.103 372.83 331.117 372.008 330.029C368.96 326.031 367.611 320.765 366.862 315.751C366.793 315.279 366.725 314.806 366.662 314.334C366.142 310.791 365.998 307.207 366.233 303.636C366.301 302.757 366.399 301.879 366.519 301.006C366.599 300.456 366.685 299.863 366.782 299.292C366.779 299.276 366.779 299.259 366.782 299.243C366.93 298.337 367.091 297.425 367.251 296.497C367.822 293.383 368.394 290.187 370.11 287.507C371.238 285.839 372.663 284.375 374.318 283.18C374.935 282.713 375.57 282.268 376.211 281.84C377.251 281.148 378.32 280.489 379.407 279.868C382.14 278.297 385.01 276.955 387.983 275.859C388.693 275.595 389.413 275.348 390.133 275.112C392.934 274.155 395.948 273.926 398.87 274.448C401.46 274.808 404.077 274.955 406.692 274.887C413.399 274.761 420.135 273.531 426.83 272.734C436.128 271.636 446.117 271.504 454.225 276.029C454.613 276.244 454.991 276.469 455.368 276.705C459.371 279.22 462.596 282.746 465.197 286.683C465.769 287.512 466.266 288.364 466.758 289.226C467.892 291.205 468.916 293.24 469.829 295.322C470.368 296.344 470.66 297.471 470.681 298.617C470.667 298.835 470.637 299.051 470.589 299.265C470.435 300.045 470.126 300.802 470.017 301.593C469.657 304.586 472.304 307.085 473.294 309.935C473.934 311.791 473.865 313.779 474.226 315.734C474.746 318.48 476.147 320.951 477.405 323.423C479.393 327.401 481.093 331.505 482.494 335.708C483.488 338.635 484.34 341.606 485.089 344.604C485.333 345.567 485.564 346.532 485.781 347.498C486.405 350.156 486.913 352.759 487.365 355.379Z" fill="#F86D70"/>
<path d="M548.329 274.052V277.897L547.591 277.886L546.768 277.875L537.573 277.765L514.919 277.479L508.561 277.402L506.914 277.38L497.371 277.265L483.923 277.095L455.391 276.738L405.88 276.123L388.012 275.903L380.842 275.815L374.244 275.733L370.132 275.678L366.239 275.628L337.369 275.271L329.364 275.173L327.62 275.151L326.488 272.344L318.26 251.965L316.756 248.241L317.9 243.848L323.046 247.143L326.214 247.522L378.366 253.749L388.155 254.919L408.911 257.401L429.243 259.829L437.214 260.779L484.38 266.413L497.56 267.989L508.47 269.291L547.259 273.926L548.329 274.052Z" fill="#3F3D56"/>
<path d="M317.9 243.848L328.192 269.659L548.329 274.052V246.045L317.9 243.848Z" fill="#504F60"/>
<path d="M329.336 272.405L331.051 430.017L339.056 428.918L337.341 272.405H329.336Z" fill="#3F3D56"/>
<path d="M547.591 277.88H546.768C545.435 287.706 543.229 297.405 540.175 306.871L537.573 277.765L537.465 276.524L547.082 275.458L547.402 275.425L547.591 277.88Z" fill="#3F3D56"/>
<path d="M516.309 259.225L432.543 260.872L406.526 252.635L476.284 248.79L516.309 259.225Z" fill="white"/>
<path d="M411.232 227.197C410.344 227.524 409.557 228.063 408.945 228.762C408.467 229.52 408.175 230.373 408.093 231.256L406.687 239.312C406.472 240.049 406.51 240.832 406.795 241.547C407.161 242.222 408.225 242.574 408.756 242.014C408.688 243.59 408.831 245.27 409.786 246.555C410.74 247.84 412.742 248.516 414.091 247.621C414.303 247.952 414.587 248.235 414.924 248.45C415.26 248.665 415.642 248.808 416.042 248.867C416.441 248.927 416.85 248.902 417.239 248.795C417.628 248.688 417.988 248.501 418.294 248.247C417.482 248.51 417.425 249.702 418.002 250.306C418.649 250.854 419.473 251.171 420.335 251.201C430.383 252.562 440.627 251.324 450.011 247.615C450.897 247.264 448.564 236.769 448.329 235.693C447.758 233.161 447.472 230.069 445.248 228.367C439.93 224.292 430.484 223.49 424.006 223.974C419.58 224.295 415.251 225.387 411.232 227.197V227.197Z" fill="#FBBEBE"/>
<path opacity="0.1" d="M496.462 228.416C475.781 228.795 454.671 229.119 434.933 223.172C436.818 230.189 436.688 237.566 434.555 244.518L531.255 252.206C535.355 252.53 552.354 254.376 556.351 253.447C560.348 252.519 522.816 240.646 524.331 236.972C528.499 226.851 542.462 220.92 532.405 220.541C519.711 220.058 509.253 228.186 496.462 228.416Z" fill="black"/>
<path d="M497.034 229.515C476.353 229.894 455.242 230.218 435.504 224.27C437.39 231.287 437.259 238.664 435.127 245.616L531.827 253.305C535.927 253.629 552.926 255.501 556.923 254.546C560.919 253.59 559.982 248.884 561.497 245.21C565.665 235.089 543.034 222.018 532.976 221.64C520.283 221.156 509.825 229.284 497.034 229.515Z" fill="#464353"/>
<path d="M464.151 231.041C465.039 231.368 465.826 231.907 466.438 232.606C466.916 233.365 467.209 234.217 467.295 235.1L468.702 243.156C468.914 243.893 468.876 244.676 468.593 245.391C468.227 246.067 467.158 246.418 466.632 245.858C466.695 247.434 466.558 249.115 465.603 250.4C464.648 251.685 462.647 252.36 461.292 251.465C461.08 251.796 460.796 252.079 460.459 252.294C460.123 252.51 459.741 252.652 459.341 252.712C458.941 252.771 458.533 252.746 458.144 252.639C457.755 252.532 457.395 252.345 457.089 252.091C457.901 252.355 457.964 253.546 457.386 254.15C456.738 254.699 455.912 255.015 455.048 255.046C445.002 256.406 434.76 255.168 425.378 251.459C424.492 251.108 426.819 240.613 427.059 239.537C427.631 237.005 427.917 233.913 430.141 232.211C435.453 228.136 444.904 227.334 451.383 227.818C455.807 228.14 460.133 229.232 464.151 231.041V231.041Z" fill="#FBBEBE"/>
<path d="M327.495 213.55C325.596 215.901 323.692 218.301 322.469 221.041C320.13 226.269 320.473 232.189 320.862 237.867C320.971 239.515 321.108 241.195 322.005 242.563C322.782 243.596 323.805 244.434 324.99 245.007C329.942 247.709 335.74 248.516 341.4 249.12C350.069 250.043 358.767 250.605 367.497 250.806C389.121 251.311 411.078 249.614 432.142 254.321C429.535 250.515 429.541 245.479 430.999 241.141C432.457 236.802 435.264 233.024 438.015 229.306C428.374 226.373 418.036 230.953 407.939 230.498C397.572 230.031 387.978 224.276 377.6 224.281C375.37 224.281 373.1 224.55 370.933 224.034C368.766 223.518 366.667 221.947 366.467 219.811C369.235 220.409 371.859 218.136 373.003 215.643C374.146 213.149 374.352 210.332 375.461 207.822C378.223 201.578 385.685 198.684 390.328 193.544C391.06 192.731 391.752 191.77 391.729 190.694C391.62 189.782 391.22 188.925 390.585 188.239C386.726 183.296 380.911 180.551 376.079 176.706C374.398 175.366 371.007 170.314 369.12 169.847C365.621 168.985 362.654 173.84 360.378 176.207C348.889 188.197 337.928 200.645 327.495 213.55Z" fill="#464353"/>
<path opacity="0.07" d="M442.469 212.155C443.918 213.188 445.206 214.414 446.294 215.796C446.836 216.491 447.222 217.286 447.428 218.131C447.633 218.976 447.654 219.853 447.489 220.706C447.312 219.114 447.681 217.51 448.541 216.139C449.401 214.768 450.704 213.704 452.252 213.111L442.469 212.155Z" fill="black"/>
<g opacity="0.1">
<path opacity="0.1" d="M474.18 68.141C473.507 66.4246 472.732 64.7468 471.858 63.1161C471.294 63.2204 470.736 63.3579 470.189 63.528C471.17 65.093 472.054 66.7122 472.836 68.3772C473.276 68.2673 473.722 68.1904 474.18 68.141Z" fill="black"/>
<path opacity="0.1" d="M507.355 89.7948C507.509 89.9156 507.658 90.0529 507.806 90.1793C507.796 90.1436 507.782 90.1088 507.766 90.0749C507.637 89.9834 507.5 89.89 507.355 89.7948Z" fill="black"/>
<path opacity="0.1" d="M454.202 92.2111C454.499 91.986 454.774 91.7498 455.094 91.5302L455.002 88.9216L448.896 88.8612C447.906 89.7344 446.854 90.9865 447.438 92.1562L454.202 92.2111Z" fill="black"/>
<path opacity="0.1" d="M520.963 136.123C519.877 138.067 518.31 139.89 516.166 140.675C514.513 141.28 512.695 141.225 510.928 141.148C504.902 140.912 498.772 140.653 493.077 138.737C490.413 137.836 487.863 136.579 485.072 136.024C481.807 135.376 478.428 135.744 475.118 136.117L460.526 137.765C456.22 138.248 451.423 138.611 447.986 136.073C446.019 134.624 444.75 132.366 442.594 131.202C441.685 130.708 440.605 130.389 440.016 129.555C439.644 128.935 439.447 128.233 439.444 127.517C439.398 126.941 439.37 126.364 439.347 125.787C439.285 127.463 439.317 129.14 439.444 130.812C439.447 131.528 439.644 132.23 440.016 132.85C440.588 133.679 441.685 133.997 442.594 134.497C444.75 135.661 446.025 137.919 447.986 139.368C451.417 141.906 456.22 141.565 460.526 141.06L475.118 139.412C478.428 139.039 481.807 138.671 485.072 139.319C487.84 139.868 490.39 141.131 493.077 142.032C498.795 143.948 504.902 144.229 510.928 144.443C512.695 144.514 514.513 144.575 516.166 143.97C518.31 143.185 519.877 141.362 520.963 139.418C523.067 135.656 523.656 131.389 523.433 127.089C523.311 130.238 522.467 133.322 520.963 136.123V136.123Z" fill="black"/>
</g>
<path opacity="0.1" d="M474.014 71.6722L482.019 78.8114C482.019 78.8114 475.158 76.0655 474.014 71.6722Z" fill="black"/>
</g>
<defs>
<clipPath id="clip0">
<rect width="562" height="441" fill="white"/>
</clipPath>
</defs>
</svg>
