<svg width="775" height="484" viewBox="0 0 775 484" fill="none" xmlns="http://www.w3.org/2000/svg">
<g clip-path="url(#clip0)">
<path opacity="0.1" d="M438.363 65.8945C388.686 65.9546 340.871 53.2157 295.135 39.064C249.399 24.9124 204.016 9.06541 155.263 2.35028C123.909 -1.96616 88.2547 -1.56938 63.7454 14.1033C40.1532 29.1807 33.3215 54.1355 30.0252 77.1906C27.5464 94.5345 26.4033 112.738 35.6873 128.603C42.1337 139.617 53.1655 148.694 60.9409 159.191C88.0819 195.706 71.7601 242.351 45.3834 279.714C33.0158 297.245 18.5282 314.047 9.17769 332.582C-0.172787 351.116 -4.00735 372.133 5.52921 390.427C14.9794 408.558 36.3253 421.718 59.233 430.706C105.753 448.993 159.915 452.913 212.622 454.422C329.294 457.77 446.191 450.941 562.777 444.112C605.92 441.587 649.257 439.044 691.51 431.727C714.969 427.67 739.127 421.646 755.761 408.444C776.874 391.683 781.194 364.318 765.829 344.647C740.064 311.655 672.125 305.433 653.65 269.735C643.462 250.082 652.248 227.544 665.187 208.601C692.939 167.956 740.708 131.549 741.512 86.088C742.064 54.8689 717.222 24.4134 680.12 10.8449C641.229 -3.36689 588.203 0.288252 560.956 26.776C532.937 54.0634 482.224 65.8524 438.363 65.8945Z" fill="#924914"/>
<path d="M659.604 387.974C659.604 387.974 651.437 383.099 643.342 386.568C643.342 386.568 645.834 390.908 656.082 390.499L659.604 387.974Z" fill="#924914"/>
<path d="M660.641 388.233C660.641 388.233 663.127 396.794 656.893 402.619C656.893 402.619 653.145 399.09 656.893 390.445L660.641 388.233Z" fill="#924914"/>
<path d="M670.796 380.015C670.796 380.015 670.191 372.734 652.015 375.151C652.015 375.151 651.929 379.846 658.308 382.071C664.688 384.295 667.612 382.419 670.796 380.015Z" fill="#924914"/>
<path d="M671.939 379.967C671.939 379.967 679.621 382.197 672.769 397.617C672.769 397.617 667.699 396.595 666.788 390.457C665.878 384.319 668.576 382.203 671.939 379.967Z" fill="#924914"/>
<path d="M682.2 369.638C682.2 369.638 683.243 357.657 664.668 358.883C664.668 358.883 663.339 369.705 678.923 372.518L682.2 369.638Z" fill="#924914"/>
<path d="M694.474 356.112C694.474 356.112 691.929 342.531 673.361 346.577C673.361 346.577 673.294 358.318 691.444 359.346L694.474 356.112Z" fill="#924914"/>
<path d="M703.446 342.129C703.446 342.129 699.179 328.903 680.784 332.859C680.784 332.859 685.164 344.756 702.223 344.569L703.446 342.129Z" fill="#924914"/>
<path d="M711.966 328.47C711.966 328.47 707.799 314.745 690.035 318.851C690.035 318.851 695.963 331.891 710.789 330.791L711.966 328.47Z" fill="#924914"/>
<path d="M717.455 315.497C717.455 315.497 714.252 298.712 697.691 302.427C697.691 302.427 702.502 317.697 716.239 317.943L717.455 315.497Z" fill="#924914"/>
<path d="M722.605 299.824C722.605 299.824 718.757 282.907 702.004 287.801C702.004 287.801 708.57 303.792 721.416 302.139L722.605 299.824Z" fill="#924914"/>
<path d="M725.769 285.24C725.769 285.24 719.661 268.316 706.709 268.773C706.709 268.773 712.949 286.646 724.685 288.612L725.769 285.24Z" fill="#924914"/>
<path d="M727.816 271.004C727.816 271.004 721.17 250.636 710.63 252.205C710.63 252.205 715.229 267.775 727.443 274.178L727.816 271.004Z" fill="#924914"/>
<path d="M728.972 254.02C728.972 254.02 722.738 237.049 712.358 236.37C712.358 236.37 716.598 253.071 728.766 258.433L728.972 254.02Z" fill="#924914"/>
<path d="M730.228 238.174C730.228 238.174 722.459 221.184 715.607 220.8C715.607 220.8 718.983 237.53 729.563 240.963L730.228 238.174Z" fill="#924914"/>
<path d="M731.085 223.433C731.085 223.433 726.307 204.983 719.442 203.45C719.442 203.45 720.379 218.545 730.394 224.815L731.085 223.433Z" fill="#924914"/>
<path d="M733.677 204.123C733.677 204.123 728.653 189.412 723.091 187.17C723.091 187.17 724.187 204.514 732.394 207.718L733.677 204.123Z" fill="#924914"/>
<path d="M735.824 191.498L736.834 165.564C736.834 165.564 726.433 185.114 735.073 196.049L735.824 191.498Z" fill="#924914"/>
<path d="M743.852 165.702C743.852 165.702 751.341 146.765 753.156 145.707C753.156 145.707 738.469 157.995 739.904 173.8L743.852 165.702Z" fill="#924914"/>
<path d="M682.705 369.548C682.705 369.548 695.877 367.991 695.484 384.83C695.484 384.83 683.582 386.586 679.694 372.656L682.705 369.548Z" fill="#924914"/>
<path d="M695.099 355.655C695.099 355.655 710.318 355.613 709.055 372.849C709.055 372.849 696.275 374.917 692.062 358.913L695.099 355.655Z" fill="#924914"/>
<path d="M703.592 343.241C703.592 343.241 717.408 337.379 726.247 352.511C726.247 352.511 713.488 357.393 702.369 345.688L703.592 343.241Z" fill="#924914"/>
<path d="M712.271 328.596C712.271 328.596 726.42 322.362 734.727 337.139C734.727 337.139 719.987 341.732 711.102 330.935L712.271 328.596Z" fill="#924914"/>
<path d="M717.275 315.863C717.275 315.863 730.893 304.098 741.758 315.996C741.758 315.996 727.849 325.681 716.651 318.484L717.275 315.863Z" fill="#924914"/>
<path d="M721.834 299.421C721.834 299.421 735.531 287.398 746.311 299.974C746.311 299.974 730.939 309.852 721.343 301.946L721.834 299.421Z" fill="#924914"/>
<path d="M724.393 284.759C724.393 284.759 734.946 269.729 747.374 273.084C747.374 273.084 736.422 288.997 724.513 288.287L724.393 284.759Z" fill="#924914"/>
<path d="M727.503 270.907C727.503 270.907 738.136 251.983 748.198 255.277C748.198 255.277 740.529 269.825 727.231 274.1L727.503 270.907Z" fill="#924914"/>
<path d="M728.241 253.035C728.241 253.035 739.173 238.137 749.414 239.959C749.414 239.959 740.476 255.067 727.178 257.345L728.241 253.035Z" fill="#924914"/>
<path d="M729.092 237.843C729.092 237.843 737.565 221.124 744.45 221.01C744.45 221.01 740.383 237.608 729.663 240.68L729.092 237.843Z" fill="#924914"/>
<path d="M730.753 223.072C730.753 223.072 740.17 206.143 747.248 206.107C747.248 206.107 742.429 220.583 731.065 224.557L730.753 223.072Z" fill="#924914"/>
<path d="M732.169 205.181C732.169 205.181 739.213 191.174 745.048 189.587C745.048 189.587 741.526 206.66 732.946 208.896L732.169 205.181Z" fill="#924914"/>
<path d="M736.661 190.987L752.405 169.291C752.405 169.291 748.371 190.693 734.362 195.141L736.661 190.987Z" fill="#924914"/>
<path d="M747.467 167.451C747.467 167.451 765.762 156.029 766.427 154.183C766.427 154.183 757.123 170.181 739.844 173.006L747.467 167.451Z" fill="#924914"/>
<path d="M748.563 162.311C748.563 162.311 769.57 144.042 774.933 144.06C774.933 144.06 757.608 144.775 748.058 161.337L748.563 162.311Z" fill="#924914"/>
<path d="M732.375 207.892L733.139 207.983C737.086 180.034 742.841 163.496 749.341 161.47L749.088 160.808C742.197 162.973 736.402 179.258 732.375 207.892Z" fill="#444053"/>
<path d="M726.566 274.731L727.723 274.815C727.968 272.206 728.155 269.537 728.281 266.874C729.384 243.74 731.092 222.495 733.338 206.57L732.674 205.818C730.421 221.779 728.228 243.662 727.124 266.832C726.998 269.477 726.812 272.134 726.566 274.731Z" fill="#444053"/>
<path d="M638.046 401.308C638.245 401.23 658.601 393.006 679.727 373.396C692.105 361.91 702.39 348.721 710.198 334.319C719.967 316.326 725.922 294.215 727.915 272.735L726.713 273.246C722.227 321.46 697.963 354.405 678.671 372.35C657.75 391.786 637.62 399.926 637.421 400.004L638.046 401.308Z" fill="#444053"/>
<path d="M690.753 51.2381H52.1819C50.6732 51.2381 49.2262 51.7803 48.1594 52.7454C47.0926 53.7105 46.4932 55.0194 46.4932 56.3842V71.3775H696.441V56.3842C696.441 55.0194 695.842 53.7105 694.775 52.7454C693.708 51.7803 692.261 51.2381 690.753 51.2381V51.2381Z" fill="#3F3D56"/>
<path d="M46.4932 71.3775V408.781C46.4932 411.533 47.7017 414.172 49.8528 416.118C52.004 418.064 54.9215 419.157 57.9637 419.157H684.971C688.013 419.157 690.931 418.064 693.082 416.118C695.233 414.172 696.441 411.533 696.441 408.781V71.3775H46.4932Z" fill="white"/>
<path opacity="0.8" d="M56.7874 63.5622C58.2555 63.5622 59.4457 62.4856 59.4457 61.1575C59.4457 59.8295 58.2555 58.7528 56.7874 58.7528C55.3193 58.7528 54.1291 59.8295 54.1291 61.1575C54.1291 62.4856 55.3193 63.5622 56.7874 63.5622Z" fill="#FA5959"/>
<path opacity="0.8" d="M64.0976 63.5622C65.5658 63.5622 66.7559 62.4856 66.7559 61.1575C66.7559 59.8295 65.5658 58.7528 64.0976 58.7528C62.6295 58.7528 61.4394 59.8295 61.4394 61.1575C61.4394 62.4856 62.6295 63.5622 64.0976 63.5622Z" fill="#FED253"/>
<path opacity="0.8" d="M71.4079 63.5622C72.876 63.5622 74.0662 62.4856 74.0662 61.1575C74.0662 59.8295 72.876 58.7528 71.4079 58.7528C69.9398 58.7528 68.7496 59.8295 68.7496 61.1575C68.7496 62.4856 69.9398 63.5622 71.4079 63.5622Z" fill="#8CCF4D"/>
<path opacity="0.05" d="M629.26 127.635H106.909V335.414H629.26V127.635Z" fill="black"/>
<path d="M625.273 129.211H110.897V332.408H625.273V129.211Z" fill="#3F3D56"/>
<path d="M251.121 181.507C241 181.507 231.106 184.222 222.691 189.308C214.276 194.395 207.717 201.624 203.844 210.083C199.971 218.541 198.958 227.849 200.932 236.828C202.906 245.808 207.78 254.056 214.937 260.53C222.093 267.003 231.211 271.412 241.137 273.198C251.064 274.984 261.353 274.068 270.703 270.564C280.054 267.06 288.046 261.127 293.668 253.515C299.291 245.902 302.292 236.953 302.292 227.797C302.292 221.718 300.969 215.699 298.397 210.083C295.826 204.466 292.056 199.363 287.304 195.065C282.553 190.766 276.912 187.357 270.703 185.03C264.495 182.704 257.841 181.507 251.121 181.507V181.507ZM260.298 228.909V250.828H242.209V228.909C239.705 227.195 237.86 224.813 236.934 222.099C236.008 219.386 236.048 216.477 237.047 213.785C238.047 211.093 239.955 208.752 242.504 207.094C245.054 205.436 248.114 204.544 251.253 204.544C254.393 204.544 257.453 205.436 260.002 207.094C262.551 208.752 264.46 211.093 265.46 213.785C266.459 216.477 266.499 219.386 265.573 222.099C264.647 224.813 262.802 227.195 260.298 228.909V228.909Z" fill="#924914"/>
<path opacity="0.05" d="M251.121 181.507C241 181.507 231.106 184.222 222.691 189.308C214.276 194.395 207.717 201.624 203.844 210.083C199.971 218.541 198.958 227.849 200.932 236.828C202.906 245.808 207.78 254.056 214.937 260.53C222.093 267.003 231.211 271.412 241.137 273.198C251.064 274.984 261.353 274.068 270.703 270.564C280.054 267.06 288.046 261.127 293.668 253.515C299.291 245.902 302.292 236.953 302.292 227.797C302.292 221.718 300.969 215.699 298.397 210.083C295.826 204.466 292.056 199.363 287.304 195.065C282.553 190.766 276.912 187.357 270.703 185.03C264.495 182.704 257.841 181.507 251.121 181.507V181.507ZM260.298 228.909V250.828H242.209V228.909C239.705 227.195 237.86 224.813 236.934 222.099C236.008 219.386 236.048 216.477 237.047 213.785C238.047 211.093 239.955 208.752 242.504 207.094C245.054 205.436 248.114 204.544 251.253 204.544C254.393 204.544 257.453 205.436 260.002 207.094C262.551 208.752 264.46 211.093 265.46 213.785C266.459 216.477 266.499 219.386 265.573 222.099C264.647 224.813 262.802 227.195 260.298 228.909V228.909Z" fill="black"/>
<path d="M251.121 168.281C238.108 168.281 225.388 171.771 214.568 178.311C203.749 184.851 195.316 194.146 190.336 205.021C185.357 215.897 184.054 227.863 186.592 239.408C189.131 250.953 195.397 261.558 204.598 269.882C213.8 278.205 225.523 283.873 238.285 286.17C251.048 288.466 264.276 287.288 276.298 282.783C288.32 278.278 298.595 270.65 305.825 260.863C313.054 251.075 316.913 239.568 316.913 227.797C316.913 212.013 309.981 196.874 297.643 185.713C285.304 174.551 268.57 168.281 251.121 168.281V168.281ZM262.917 229.228V257.405H239.657V229.228C236.437 227.024 234.064 223.96 232.872 220.47C231.681 216.98 231.731 213.24 233.016 209.777C234.302 206.314 236.757 203.304 240.035 201.172C243.313 199.039 247.249 197.892 251.287 197.892C255.325 197.892 259.26 199.039 262.539 201.172C265.817 203.304 268.272 206.314 269.557 209.777C270.842 213.24 270.893 216.98 269.701 220.47C268.51 223.96 266.136 227.024 262.917 229.228V229.228Z" fill="#924914"/>
<path d="M556.822 219.988H344.16V240.428H556.822V219.988Z" fill="white"/>
<path d="M556.822 257.261H510.967V277.701H556.822V257.261Z" fill="#924914"/>
<path d="M365.094 229.901H361.246L364.669 226.811C364.73 226.754 364.764 226.678 364.764 226.598C364.764 226.518 364.73 226.442 364.669 226.384C364.638 226.356 364.601 226.334 364.561 226.319C364.52 226.303 364.477 226.296 364.433 226.296C364.389 226.296 364.346 226.303 364.305 226.319C364.265 226.334 364.228 226.356 364.197 226.384L360.774 229.481V225.994C360.774 225.914 360.739 225.838 360.677 225.781C360.615 225.725 360.53 225.693 360.442 225.693C360.355 225.695 360.271 225.727 360.209 225.783C360.147 225.839 360.112 225.914 360.11 225.994V229.481L356.694 226.366C356.663 226.338 356.626 226.316 356.586 226.301C356.545 226.285 356.502 226.278 356.458 226.278C356.414 226.278 356.371 226.285 356.33 226.301C356.29 226.316 356.253 226.338 356.222 226.366C356.161 226.424 356.126 226.5 356.126 226.58C356.126 226.66 356.161 226.736 356.222 226.793L359.645 229.883H355.79C355.703 229.885 355.619 229.917 355.557 229.973C355.495 230.029 355.46 230.105 355.458 230.184C355.458 230.264 355.493 230.34 355.555 230.396C355.617 230.453 355.702 230.484 355.79 230.484H359.645L356.222 233.581C356.161 233.638 356.126 233.714 356.126 233.794C356.126 233.874 356.161 233.95 356.222 234.007C356.286 234.061 356.37 234.092 356.458 234.092C356.546 234.092 356.63 234.061 356.694 234.007L360.11 230.911V234.392C360.11 234.472 360.145 234.548 360.207 234.605C360.269 234.661 360.354 234.693 360.442 234.693C360.53 234.693 360.615 234.661 360.677 234.605C360.739 234.548 360.774 234.472 360.774 234.392V230.911L364.197 234.007C364.261 234.061 364.345 234.092 364.433 234.092C364.52 234.092 364.605 234.061 364.669 234.007C364.73 233.95 364.764 233.874 364.764 233.794C364.764 233.714 364.73 233.638 364.669 233.581L361.246 230.484H365.094C365.182 230.484 365.267 230.453 365.329 230.396C365.391 230.34 365.426 230.264 365.426 230.184C365.421 230.107 365.384 230.035 365.322 229.983C365.26 229.93 365.179 229.901 365.094 229.901Z" fill="#924914"/>
<path d="M379.05 229.901H375.202L378.625 226.811C378.686 226.754 378.72 226.678 378.72 226.598C378.72 226.518 378.686 226.442 378.625 226.384C378.594 226.356 378.557 226.334 378.517 226.319C378.476 226.303 378.433 226.296 378.389 226.296C378.345 226.296 378.301 226.303 378.261 226.319C378.22 226.334 378.184 226.356 378.153 226.384L374.73 229.481V225.994C374.73 225.914 374.695 225.838 374.633 225.781C374.571 225.725 374.486 225.693 374.398 225.693C374.31 225.695 374.227 225.727 374.165 225.783C374.103 225.839 374.067 225.914 374.066 225.994V229.481L370.65 226.366C370.619 226.338 370.582 226.316 370.542 226.301C370.501 226.285 370.458 226.278 370.414 226.278C370.37 226.278 370.327 226.285 370.286 226.301C370.246 226.316 370.209 226.338 370.178 226.366C370.117 226.424 370.082 226.5 370.082 226.58C370.082 226.66 370.117 226.736 370.178 226.793L373.601 229.883H369.746C369.658 229.885 369.575 229.917 369.513 229.973C369.451 230.029 369.415 230.105 369.414 230.184C369.414 230.264 369.449 230.34 369.511 230.396C369.573 230.453 369.658 230.484 369.746 230.484H373.601L370.178 233.581C370.117 233.638 370.082 233.714 370.082 233.794C370.082 233.874 370.117 233.95 370.178 234.007C370.242 234.061 370.326 234.092 370.414 234.092C370.502 234.092 370.586 234.061 370.65 234.007L374.066 230.911V234.392C374.066 234.472 374.101 234.548 374.163 234.605C374.225 234.661 374.31 234.693 374.398 234.693C374.486 234.693 374.571 234.661 374.633 234.605C374.695 234.548 374.73 234.472 374.73 234.392V230.911L378.153 234.007C378.217 234.061 378.301 234.092 378.389 234.092C378.476 234.092 378.561 234.061 378.625 234.007C378.686 233.95 378.72 233.874 378.72 233.794C378.72 233.714 378.686 233.638 378.625 233.581L375.202 230.484H379.05C379.138 230.484 379.223 230.453 379.285 230.396C379.347 230.34 379.382 230.264 379.382 230.184C379.377 230.107 379.34 230.035 379.278 229.983C379.216 229.93 379.135 229.901 379.05 229.901Z" fill="#924914"/>
<path d="M393.006 229.901H389.158L392.581 226.811C392.642 226.754 392.676 226.678 392.676 226.598C392.676 226.518 392.642 226.442 392.581 226.384C392.55 226.356 392.513 226.334 392.473 226.319C392.432 226.303 392.389 226.296 392.345 226.296C392.301 226.296 392.257 226.303 392.217 226.319C392.176 226.334 392.14 226.356 392.109 226.384L388.686 229.481V225.994C388.686 225.914 388.651 225.838 388.589 225.781C388.527 225.725 388.442 225.693 388.354 225.693C388.266 225.695 388.183 225.727 388.121 225.783C388.059 225.839 388.023 225.914 388.022 225.994V229.481L384.606 226.366C384.575 226.338 384.538 226.316 384.498 226.301C384.457 226.285 384.414 226.278 384.37 226.278C384.326 226.278 384.283 226.285 384.242 226.301C384.202 226.316 384.165 226.338 384.134 226.366C384.073 226.424 384.038 226.5 384.038 226.58C384.038 226.66 384.073 226.736 384.134 226.793L387.557 229.883H383.702C383.614 229.885 383.531 229.917 383.469 229.973C383.407 230.029 383.371 230.105 383.37 230.184C383.37 230.264 383.405 230.34 383.467 230.396C383.529 230.453 383.614 230.484 383.702 230.484H387.557L384.134 233.581C384.073 233.638 384.038 233.714 384.038 233.794C384.038 233.874 384.073 233.95 384.134 234.007C384.198 234.061 384.282 234.092 384.37 234.092C384.457 234.092 384.542 234.061 384.606 234.007L388.022 230.911V234.392C388.022 234.472 388.057 234.548 388.119 234.605C388.181 234.661 388.266 234.693 388.354 234.693C388.442 234.693 388.527 234.661 388.589 234.605C388.651 234.548 388.686 234.472 388.686 234.392V230.911L392.109 234.007C392.173 234.061 392.257 234.092 392.345 234.092C392.432 234.092 392.517 234.061 392.581 234.007C392.642 233.95 392.676 233.874 392.676 233.794C392.676 233.714 392.642 233.638 392.581 233.581L389.158 230.484H393.006C393.094 230.484 393.179 230.453 393.241 230.396C393.303 230.34 393.338 230.264 393.338 230.184C393.333 230.107 393.296 230.035 393.234 229.983C393.172 229.93 393.091 229.901 393.006 229.901Z" fill="#924914"/>
<path d="M406.962 229.901H403.114L406.537 226.811C406.598 226.754 406.632 226.678 406.632 226.598C406.632 226.518 406.598 226.442 406.537 226.384C406.506 226.356 406.469 226.334 406.428 226.319C406.388 226.303 406.344 226.296 406.301 226.296C406.257 226.296 406.213 226.303 406.173 226.319C406.132 226.334 406.096 226.356 406.065 226.384L402.642 229.481V225.994C402.642 225.914 402.607 225.838 402.545 225.781C402.483 225.725 402.398 225.693 402.31 225.693C402.222 225.695 402.139 225.727 402.077 225.783C402.015 225.839 401.979 225.914 401.978 225.994V229.481L398.562 226.366C398.531 226.338 398.494 226.316 398.454 226.301C398.413 226.285 398.37 226.278 398.326 226.278C398.282 226.278 398.239 226.285 398.198 226.301C398.158 226.316 398.121 226.338 398.09 226.366C398.029 226.424 397.994 226.5 397.994 226.58C397.994 226.66 398.029 226.736 398.09 226.793L401.512 229.883H397.658C397.57 229.885 397.487 229.917 397.425 229.973C397.363 230.029 397.327 230.105 397.326 230.184C397.326 230.264 397.361 230.34 397.423 230.396C397.485 230.453 397.57 230.484 397.658 230.484H401.512L398.09 233.581C398.029 233.638 397.994 233.714 397.994 233.794C397.994 233.874 398.029 233.95 398.09 234.007C398.154 234.061 398.238 234.092 398.326 234.092C398.413 234.092 398.498 234.061 398.562 234.007L401.978 230.911V234.392C401.978 234.472 402.013 234.548 402.075 234.605C402.137 234.661 402.222 234.693 402.31 234.693C402.398 234.693 402.483 234.661 402.545 234.605C402.607 234.548 402.642 234.472 402.642 234.392V230.911L406.065 234.007C406.129 234.061 406.213 234.092 406.301 234.092C406.388 234.092 406.473 234.061 406.537 234.007C406.598 233.95 406.632 233.874 406.632 233.794C406.632 233.714 406.598 233.638 406.537 233.581L403.114 230.484H406.962C407.05 230.484 407.135 230.453 407.197 230.396C407.259 230.34 407.294 230.264 407.294 230.184C407.289 230.107 407.252 230.035 407.19 229.983C407.128 229.93 407.047 229.901 406.962 229.901Z" fill="#924914"/>
<path d="M420.918 229.901H417.07L420.493 226.811C420.554 226.754 420.588 226.678 420.588 226.598C420.588 226.518 420.554 226.442 420.493 226.384C420.462 226.356 420.425 226.334 420.384 226.319C420.344 226.303 420.3 226.296 420.257 226.296C420.213 226.296 420.169 226.303 420.129 226.319C420.088 226.334 420.052 226.356 420.021 226.384L416.598 229.481V225.994C416.598 225.914 416.563 225.838 416.501 225.781C416.439 225.725 416.354 225.693 416.266 225.693C416.178 225.695 416.095 225.727 416.033 225.783C415.971 225.839 415.935 225.914 415.934 225.994V229.481L412.518 226.366C412.487 226.338 412.45 226.316 412.41 226.301C412.369 226.285 412.326 226.278 412.282 226.278C412.238 226.278 412.194 226.285 412.154 226.301C412.113 226.316 412.077 226.338 412.046 226.366C411.985 226.424 411.95 226.5 411.95 226.58C411.95 226.66 411.985 226.736 412.046 226.793L415.468 229.883H411.614C411.526 229.885 411.443 229.917 411.381 229.973C411.319 230.029 411.283 230.105 411.282 230.184C411.282 230.264 411.317 230.34 411.379 230.396C411.441 230.453 411.526 230.484 411.614 230.484H415.468L412.046 233.581C411.985 233.638 411.95 233.714 411.95 233.794C411.95 233.874 411.985 233.95 412.046 234.007C412.11 234.061 412.194 234.092 412.282 234.092C412.369 234.092 412.454 234.061 412.518 234.007L415.934 230.911V234.392C415.934 234.472 415.969 234.548 416.031 234.605C416.093 234.661 416.178 234.693 416.266 234.693C416.354 234.693 416.439 234.661 416.501 234.605C416.563 234.548 416.598 234.472 416.598 234.392V230.911L420.021 234.007C420.085 234.061 420.169 234.092 420.257 234.092C420.344 234.092 420.429 234.061 420.493 234.007C420.554 233.95 420.588 233.874 420.588 233.794C420.588 233.714 420.554 233.638 420.493 233.581L417.07 230.484H420.918C421.006 230.484 421.09 230.453 421.153 230.396C421.215 230.34 421.25 230.264 421.25 230.184C421.245 230.107 421.208 230.035 421.146 229.983C421.084 229.93 421.003 229.901 420.918 229.901Z" fill="#924914"/>
<path d="M434.874 229.901H431.026L434.448 226.811C434.51 226.754 434.544 226.678 434.544 226.598C434.544 226.518 434.51 226.442 434.448 226.384C434.418 226.356 434.381 226.334 434.34 226.319C434.3 226.303 434.256 226.296 434.213 226.296C434.169 226.296 434.125 226.303 434.085 226.319C434.044 226.334 434.007 226.356 433.977 226.384L430.554 229.481V225.994C430.554 225.914 430.519 225.838 430.457 225.781C430.394 225.725 430.31 225.693 430.222 225.693C430.134 225.695 430.051 225.727 429.989 225.783C429.927 225.839 429.891 225.914 429.89 225.994V229.481L426.474 226.366C426.443 226.338 426.406 226.316 426.365 226.301C426.325 226.285 426.282 226.278 426.238 226.278C426.194 226.278 426.15 226.285 426.11 226.301C426.069 226.316 426.033 226.338 426.002 226.366C425.94 226.424 425.906 226.5 425.906 226.58C425.906 226.66 425.94 226.736 426.002 226.793L429.424 229.883H425.57C425.482 229.885 425.399 229.917 425.337 229.973C425.275 230.029 425.239 230.105 425.238 230.184C425.238 230.264 425.273 230.34 425.335 230.396C425.397 230.453 425.482 230.484 425.57 230.484H429.424L426.002 233.581C425.94 233.638 425.906 233.714 425.906 233.794C425.906 233.874 425.94 233.95 426.002 234.007C426.066 234.061 426.15 234.092 426.238 234.092C426.325 234.092 426.41 234.061 426.474 234.007L429.89 230.911V234.392C429.89 234.472 429.925 234.548 429.987 234.605C430.049 234.661 430.134 234.693 430.222 234.693C430.31 234.693 430.394 234.661 430.457 234.605C430.519 234.548 430.554 234.472 430.554 234.392V230.911L433.977 234.007C434.041 234.061 434.125 234.092 434.213 234.092C434.3 234.092 434.384 234.061 434.448 234.007C434.51 233.95 434.544 233.874 434.544 233.794C434.544 233.714 434.51 233.638 434.448 233.581L431.026 230.484H434.874C434.962 230.484 435.046 230.453 435.109 230.396C435.171 230.34 435.206 230.264 435.206 230.184C435.201 230.107 435.164 230.035 435.102 229.983C435.04 229.93 434.959 229.901 434.874 229.901Z" fill="#924914"/>
<path d="M448.83 229.901H444.982L448.404 226.811C448.466 226.754 448.5 226.678 448.5 226.598C448.5 226.518 448.466 226.442 448.404 226.384C448.374 226.356 448.337 226.334 448.296 226.319C448.256 226.303 448.212 226.296 448.168 226.296C448.125 226.296 448.081 226.303 448.041 226.319C448 226.334 447.963 226.356 447.933 226.384L444.51 229.481V225.994C444.51 225.914 444.475 225.838 444.413 225.781C444.35 225.725 444.266 225.693 444.178 225.693C444.09 225.695 444.007 225.727 443.945 225.783C443.883 225.839 443.847 225.914 443.845 225.994V229.481L440.43 226.366C440.399 226.338 440.362 226.316 440.321 226.301C440.281 226.285 440.238 226.278 440.194 226.278C440.15 226.278 440.106 226.285 440.066 226.301C440.025 226.316 439.989 226.338 439.958 226.366C439.896 226.424 439.862 226.5 439.862 226.58C439.862 226.66 439.896 226.736 439.958 226.793L443.38 229.883H439.526C439.438 229.885 439.355 229.917 439.293 229.973C439.231 230.029 439.195 230.105 439.194 230.184C439.194 230.264 439.229 230.34 439.291 230.396C439.353 230.453 439.438 230.484 439.526 230.484H443.38L439.958 233.581C439.896 233.638 439.862 233.714 439.862 233.794C439.862 233.874 439.896 233.95 439.958 234.007C440.022 234.061 440.106 234.092 440.194 234.092C440.281 234.092 440.366 234.061 440.43 234.007L443.845 230.911V234.392C443.845 234.472 443.88 234.548 443.943 234.605C444.005 234.661 444.09 234.693 444.178 234.693C444.266 234.693 444.35 234.661 444.413 234.605C444.475 234.548 444.51 234.472 444.51 234.392V230.911L447.933 234.007C447.997 234.061 448.081 234.092 448.168 234.092C448.256 234.092 448.34 234.061 448.404 234.007C448.466 233.95 448.5 233.874 448.5 233.794C448.5 233.714 448.466 233.638 448.404 233.581L444.982 230.484H448.83C448.918 230.484 449.002 230.453 449.065 230.396C449.127 230.34 449.162 230.264 449.162 230.184C449.157 230.107 449.12 230.035 449.058 229.983C448.996 229.93 448.915 229.901 448.83 229.901Z" fill="#924914"/>
<path d="M462.786 229.901H458.938L462.36 226.811C462.422 226.754 462.456 226.678 462.456 226.598C462.456 226.518 462.422 226.442 462.36 226.384C462.329 226.356 462.293 226.334 462.252 226.319C462.212 226.303 462.168 226.296 462.124 226.296C462.081 226.296 462.037 226.303 461.997 226.319C461.956 226.334 461.919 226.356 461.888 226.384L458.466 229.481V225.994C458.466 225.914 458.431 225.838 458.369 225.781C458.306 225.725 458.222 225.693 458.134 225.693C458.046 225.695 457.963 225.727 457.901 225.783C457.839 225.839 457.803 225.914 457.801 225.994V229.481L454.386 226.366C454.355 226.338 454.318 226.316 454.277 226.301C454.237 226.285 454.193 226.278 454.15 226.278C454.106 226.278 454.062 226.285 454.022 226.301C453.981 226.316 453.945 226.338 453.914 226.366C453.852 226.424 453.818 226.5 453.818 226.58C453.818 226.66 453.852 226.736 453.914 226.793L457.336 229.883H453.482C453.394 229.885 453.311 229.917 453.249 229.973C453.187 230.029 453.151 230.105 453.149 230.184C453.149 230.264 453.184 230.34 453.247 230.396C453.309 230.453 453.394 230.484 453.482 230.484H457.336L453.914 233.581C453.852 233.638 453.818 233.714 453.818 233.794C453.818 233.874 453.852 233.95 453.914 234.007C453.978 234.061 454.062 234.092 454.15 234.092C454.237 234.092 454.321 234.061 454.386 234.007L457.801 230.911V234.392C457.801 234.472 457.836 234.548 457.899 234.605C457.961 234.661 458.046 234.693 458.134 234.693C458.222 234.693 458.306 234.661 458.369 234.605C458.431 234.548 458.466 234.472 458.466 234.392V230.911L461.888 234.007C461.952 234.061 462.037 234.092 462.124 234.092C462.212 234.092 462.296 234.061 462.36 234.007C462.422 233.95 462.456 233.874 462.456 233.794C462.456 233.714 462.422 233.638 462.36 233.581L458.938 230.484H462.786C462.874 230.484 462.958 230.453 463.021 230.396C463.083 230.34 463.118 230.264 463.118 230.184C463.113 230.107 463.076 230.035 463.014 229.983C462.952 229.93 462.87 229.901 462.786 229.901Z" fill="#924914"/>
<path d="M476.742 229.901H472.894L476.316 226.811C476.378 226.754 476.412 226.678 476.412 226.598C476.412 226.518 476.378 226.442 476.316 226.384C476.285 226.356 476.249 226.334 476.208 226.319C476.168 226.303 476.124 226.296 476.08 226.296C476.036 226.296 475.993 226.303 475.953 226.319C475.912 226.334 475.875 226.356 475.844 226.384L472.422 229.481V225.994C472.422 225.914 472.387 225.838 472.325 225.781C472.262 225.725 472.178 225.693 472.09 225.693C472.002 225.695 471.918 225.727 471.857 225.783C471.795 225.839 471.759 225.914 471.757 225.994V229.481L468.341 226.366C468.311 226.338 468.274 226.316 468.233 226.301C468.193 226.285 468.149 226.278 468.106 226.278C468.062 226.278 468.018 226.285 467.978 226.301C467.937 226.316 467.9 226.338 467.87 226.366C467.808 226.424 467.774 226.5 467.774 226.58C467.774 226.66 467.808 226.736 467.87 226.793L471.292 229.883H467.438C467.35 229.885 467.267 229.917 467.205 229.973C467.143 230.029 467.107 230.105 467.105 230.184C467.105 230.264 467.14 230.34 467.203 230.396C467.265 230.453 467.35 230.484 467.438 230.484H471.292L467.87 233.581C467.808 233.638 467.774 233.714 467.774 233.794C467.774 233.874 467.808 233.95 467.87 234.007C467.934 234.061 468.018 234.092 468.106 234.092C468.193 234.092 468.277 234.061 468.341 234.007L471.757 230.911V234.392C471.757 234.472 471.792 234.548 471.855 234.605C471.917 234.661 472.002 234.693 472.09 234.693C472.178 234.693 472.262 234.661 472.325 234.605C472.387 234.548 472.422 234.472 472.422 234.392V230.911L475.844 234.007C475.908 234.061 475.993 234.092 476.08 234.092C476.168 234.092 476.252 234.061 476.316 234.007C476.378 233.95 476.412 233.874 476.412 233.794C476.412 233.714 476.378 233.638 476.316 233.581L472.894 230.484H476.742C476.83 230.484 476.914 230.453 476.977 230.396C477.039 230.34 477.074 230.264 477.074 230.184C477.069 230.107 477.032 230.035 476.97 229.983C476.908 229.93 476.826 229.901 476.742 229.901Z" fill="#924914"/>
<path d="M490.698 229.901H486.85L490.272 226.811C490.334 226.754 490.368 226.678 490.368 226.598C490.368 226.518 490.334 226.442 490.272 226.384C490.241 226.356 490.205 226.334 490.164 226.319C490.124 226.303 490.08 226.296 490.036 226.296C489.992 226.296 489.949 226.303 489.909 226.319C489.868 226.334 489.831 226.356 489.8 226.384L486.378 229.481V225.994C486.378 225.914 486.343 225.838 486.281 225.781C486.218 225.725 486.134 225.693 486.046 225.693C485.958 225.695 485.874 225.727 485.812 225.783C485.751 225.839 485.715 225.914 485.713 225.994V229.481L482.297 226.366C482.267 226.338 482.23 226.316 482.189 226.301C482.149 226.285 482.105 226.278 482.061 226.278C482.018 226.278 481.974 226.285 481.934 226.301C481.893 226.316 481.856 226.338 481.826 226.366C481.764 226.424 481.73 226.5 481.73 226.58C481.73 226.66 481.764 226.736 481.826 226.793L485.248 229.883H481.394C481.306 229.885 481.222 229.917 481.16 229.973C481.099 230.029 481.063 230.105 481.061 230.184C481.061 230.264 481.096 230.34 481.159 230.396C481.221 230.453 481.305 230.484 481.394 230.484H485.248L481.826 233.581C481.764 233.638 481.73 233.714 481.73 233.794C481.73 233.874 481.764 233.95 481.826 234.007C481.89 234.061 481.974 234.092 482.061 234.092C482.149 234.092 482.233 234.061 482.297 234.007L485.713 230.911V234.392C485.713 234.472 485.748 234.548 485.811 234.605C485.873 234.661 485.957 234.693 486.046 234.693C486.134 234.693 486.218 234.661 486.281 234.605C486.343 234.548 486.378 234.472 486.378 234.392V230.911L489.8 234.007C489.864 234.061 489.949 234.092 490.036 234.092C490.124 234.092 490.208 234.061 490.272 234.007C490.334 233.95 490.368 233.874 490.368 233.794C490.368 233.714 490.334 233.638 490.272 233.581L486.85 230.484H490.698C490.786 230.484 490.87 230.453 490.932 230.396C490.995 230.34 491.03 230.264 491.03 230.184C491.025 230.107 490.987 230.035 490.926 229.983C490.864 229.93 490.782 229.901 490.698 229.901Z" fill="#924914"/>
<path d="M504.654 229.901H500.806L504.228 226.811C504.289 226.754 504.324 226.678 504.324 226.598C504.324 226.518 504.289 226.442 504.228 226.384C504.197 226.356 504.161 226.334 504.12 226.319C504.08 226.303 504.036 226.296 503.992 226.296C503.948 226.296 503.905 226.303 503.864 226.319C503.824 226.334 503.787 226.356 503.756 226.384L500.334 229.481V225.994C500.334 225.914 500.299 225.838 500.236 225.781C500.174 225.725 500.09 225.693 500.002 225.693C499.914 225.695 499.83 225.727 499.768 225.783C499.706 225.839 499.671 225.914 499.669 225.994V229.481L496.253 226.366C496.222 226.338 496.186 226.316 496.145 226.301C496.105 226.285 496.061 226.278 496.017 226.278C495.974 226.278 495.93 226.285 495.89 226.301C495.849 226.316 495.812 226.338 495.782 226.366C495.72 226.424 495.686 226.5 495.686 226.58C495.686 226.66 495.72 226.736 495.782 226.793L499.204 229.883H495.35C495.262 229.885 495.178 229.917 495.116 229.973C495.054 230.029 495.019 230.105 495.017 230.184C495.017 230.264 495.052 230.34 495.115 230.396C495.177 230.453 495.261 230.484 495.35 230.484H499.204L495.782 233.581C495.72 233.638 495.686 233.714 495.686 233.794C495.686 233.874 495.72 233.95 495.782 234.007C495.846 234.061 495.93 234.092 496.017 234.092C496.105 234.092 496.189 234.061 496.253 234.007L499.669 230.911V234.392C499.669 234.472 499.704 234.548 499.767 234.605C499.829 234.661 499.913 234.693 500.002 234.693C500.09 234.693 500.174 234.661 500.236 234.605C500.299 234.548 500.334 234.472 500.334 234.392V230.911L503.756 234.007C503.82 234.061 503.905 234.092 503.992 234.092C504.08 234.092 504.164 234.061 504.228 234.007C504.289 233.95 504.324 233.874 504.324 233.794C504.324 233.714 504.289 233.638 504.228 233.581L500.806 230.484H504.654C504.742 230.484 504.826 230.453 504.888 230.396C504.951 230.34 504.986 230.264 504.986 230.184C504.981 230.107 504.943 230.035 504.882 229.983C504.82 229.93 504.738 229.901 504.654 229.901Z" fill="#924914"/>
<path d="M611.642 303.034C611.624 302.308 611.523 301.584 611.343 300.876C610.745 298.844 609.396 296.385 607.176 295.772C604.885 295.137 602.671 294.291 600.571 293.247C600.172 286.803 601.807 280.208 600.026 273.961C599.361 271.677 598.265 269.489 597.972 267.15C597.607 264.24 598.484 261.138 597.201 258.457C596.191 256.341 593.971 254.85 591.586 254.069C589.2 253.287 586.628 253.077 584.096 252.866C580.906 252.632 570.579 251.526 566.977 254.105C566.728 254.279 566.505 254.481 566.312 254.706V254.706C566.233 254.805 566.161 254.909 566.099 255.018L566.066 255.067C565.994 255.192 565.934 255.323 565.887 255.457V255.457C565.837 255.605 565.799 255.755 565.774 255.908C565.774 255.956 565.774 256.004 565.774 256.052C565.774 256.101 565.774 256.263 565.774 256.371V256.533C565.774 256.642 565.774 256.75 565.774 256.864C565.774 256.978 565.774 256.948 565.774 256.99C565.82 257.531 565.907 258.072 565.907 258.607C565.914 258.874 565.887 259.14 565.827 259.401C565.606 260.11 565.231 260.772 564.724 261.349V261.349L564.604 261.505C564.531 261.601 564.458 261.691 564.392 261.788C564.325 261.884 564.272 261.956 564.219 262.04C564.166 262.124 564.112 262.178 564.066 262.257C564.002 262.356 563.944 262.458 563.893 262.563C563.893 262.623 563.82 262.677 563.793 262.738C563.71 262.9 563.644 263.069 563.594 263.242C563.438 263.765 563.425 264.313 563.554 264.842C563.733 265.516 564.042 266.157 564.465 266.735C564.631 266.982 564.81 267.222 564.996 267.463L565.462 268.034C565.375 268.592 565.328 269.154 565.322 269.717C565.322 271.6 565.795 273.458 566.704 275.151C567.614 276.844 568.936 278.329 570.572 279.492C570.835 282.031 570.806 284.588 570.486 287.121C570.426 287.65 570.353 288.185 570.273 288.714C570.193 289.243 570.133 289.592 570.054 290.031C569.081 290.157 568.09 290.089 567.15 289.832C566.716 289.657 566.272 289.503 565.82 289.37C563.886 288.931 561.913 290.674 559.999 290.145C559.999 290.229 559.946 290.307 559.912 290.386C559.513 290.161 559.054 290.038 558.583 290.031C557.447 289.983 556.523 289.237 555.699 288.534L553.167 286.376C553.002 286.244 552.855 286.094 552.728 285.931C552.592 285.697 552.49 285.449 552.423 285.191C551.997 283.947 550.967 282.955 549.97 282.011C549.781 281.796 549.531 281.632 549.246 281.536C549.136 281.521 549.024 281.521 548.914 281.536C548.846 281.452 548.773 281.372 548.694 281.296C548.522 281.117 548.338 280.949 548.143 280.791C546.933 279.781 546.814 278.915 545.764 277.785C544.848 276.707 544.017 275.572 543.278 274.388C543.192 273.757 543.072 273.108 542.926 272.452C542.591 270.952 542.104 269.483 541.471 268.064L540.141 265.401L539.989 265.539C539.025 264.24 537.995 263.531 537.071 263.699C535.523 263.988 534.758 266.705 535.004 270.258L535.536 273.865C535.536 273.955 535.582 274.046 535.609 274.136C535.513 274.563 535.464 274.998 535.463 275.434C535.463 275.939 535.981 276.312 536.254 276.763C536.69 277.374 536.921 278.086 536.918 278.813C536.885 279.071 536.799 279.318 536.785 279.57C536.822 280.135 537.039 280.678 537.41 281.133L540.733 286.183L541.397 287.241L541.437 287.29C541.647 287.659 541.953 287.976 542.328 288.215C542.458 289.48 542.829 290.714 543.424 291.864C543.537 292.093 543.664 292.309 543.797 292.526C544.69 293.854 545.742 295.09 546.933 296.211L548.515 297.816C550.077 299.391 551.638 300.972 553.333 302.427C553.94 303.011 554.673 303.475 555.486 303.792C555.885 303.936 556.318 303.982 556.743 303.926C557.168 303.87 557.569 303.714 557.905 303.473C557.905 304.219 557.905 304.964 557.905 305.709C558.152 305.723 558.39 305.796 558.595 305.921C558.801 306.046 558.965 306.218 559.072 306.42C559.179 306.621 559.225 306.845 559.204 307.068C559.184 307.291 559.098 307.505 558.955 307.687C557.56 310.928 556.151 314.198 554.038 317.102C555.529 317.9 556.912 318.855 558.158 319.945C558.966 320.756 559.685 321.636 560.304 322.572C560.364 323.017 560.411 323.456 560.437 323.895C560.929 331.061 557.865 338.173 555.121 345.002C554.33 346.938 553.466 348.964 553.533 350.978C553.012 351.268 552.514 351.592 552.044 351.946C552.589 353.232 552.376 354.381 552.316 355.757C552.297 356.583 552.11 357.398 551.765 358.162C551.476 358.692 551.156 359.208 550.808 359.707C549.087 362.454 548.708 365.719 548.362 368.857C548.156 370.751 548.967 373.065 548.017 374.76C546.375 377.67 544.92 380.772 544.694 384.007C544.686 384.734 544.583 385.459 544.388 386.165C544.182 386.766 543.816 387.277 543.63 387.866C543.439 388.655 543.394 389.468 543.497 390.271C543.624 393.152 543.151 396.03 542.102 398.753C541.271 400.9 540.354 403.196 541.005 405.402C539.402 406.926 538.412 408.893 538.194 410.987C538.177 411.523 538.106 412.056 537.982 412.58C537.778 413.116 537.511 413.63 537.184 414.113C535.846 416.317 535.22 418.817 535.376 421.327C533.383 423.774 532.386 426.792 531.794 429.792C531.203 432.792 530.944 435.846 530.186 438.81C529.176 442.729 527.349 446.691 526.99 450.707C524.836 451.951 523.906 454.362 523.494 456.641C523.082 458.919 523.016 461.312 521.959 463.416C521.414 464.51 520.63 465.49 520.111 466.608C519.748 467.498 519.481 468.418 519.314 469.355C518.995 470.822 518.716 472.457 519.108 473.864C518.544 474.404 517.886 474.857 517.161 475.205C517.267 474.832 517.353 474.459 517.426 474.081C515.712 475.487 512.602 474.994 511.233 476.684C510.822 477.228 510.661 477.896 510.785 478.546C510.909 479.196 511.308 479.776 511.897 480.164C512.326 480.401 512.789 480.581 513.273 480.7C516.596 481.661 520.012 482.629 523.428 482.118C523.831 482.079 524.222 481.966 524.577 481.788C525.022 481.492 525.387 481.11 525.647 480.669C526.159 479.936 526.671 479.203 527.176 478.469C528.4 478.8 529.645 479.063 530.904 479.257C531.03 480.219 531.123 481.18 531.17 482.142C531.834 482.263 532.725 482.299 533.037 481.74C533.132 481.528 533.171 481.3 533.15 481.072C533.15 480.645 533.217 480.08 533.257 479.503H533.389C535.417 479.577 537.434 479.208 539.271 478.427C538.56 473.101 540.906 467.895 542.939 462.857C545.086 457.554 546.927 452.156 548.781 446.757C550.11 442.958 551.579 439.279 552.881 435.473C554.52 430.664 556.166 425.854 557.819 421.045C558.537 418.929 559.261 416.837 560.085 414.733C561.82 410.475 563.878 406.331 566.246 402.33C566.91 401.194 567.575 400.07 568.12 398.892C568.784 397.455 569.256 395.952 569.788 394.467C570.946 391.42 572.341 388.451 573.961 385.582C574.008 385.503 574.041 385.431 574.088 385.359C574.626 387.349 575.164 389.369 575.523 391.371C576.009 393.826 576.047 396.336 575.636 398.801C575.317 400.479 574.712 402.138 574.785 403.839C574.885 406.19 576.274 408.324 576.959 410.591C577.4 412.287 577.649 414.019 577.703 415.761C577.889 418.466 579.51 421.502 578.367 424.009C574.812 431.95 576.533 440.92 574.506 449.258C573.463 453.538 570.266 457.56 570.519 461.937C570.696 465.043 570.997 468.141 571.423 471.231C571.525 472.206 571.806 473.159 572.253 474.051C572.519 474.52 572.823 474.97 573.164 475.397C572.871 475.499 572.626 475.77 572.413 476.341C571.868 477.844 572.413 479.708 573.888 480.549C574.489 480.84 575.138 481.043 575.809 481.15C576.712 481.383 577.647 481.5 578.587 481.499C578.879 481.485 579.17 481.453 579.457 481.403C580.485 481.793 581.534 482.135 582.601 482.425C582.601 482.671 582.654 482.918 582.687 483.164C582.689 483.293 582.721 483.42 582.78 483.537C582.84 483.654 582.926 483.759 583.033 483.844C583.199 483.914 583.382 483.943 583.564 483.928H587.173C587.173 483.657 587.173 483.381 587.173 483.11C587.586 483.149 588.003 483.109 588.398 482.993C588.793 482.877 589.157 482.688 589.466 482.437C589.785 482.069 590.012 481.642 590.13 481.186C591.114 478.169 592.091 475.149 593.061 472.127C594.224 468.787 594.709 465.283 594.49 461.787C593.207 450.707 596.025 439.591 595.108 428.481C594.556 421.804 594.936 415.09 596.238 408.498C596.537 407.008 596.902 405.493 597.035 404.008C597.328 401.206 596.969 398.375 597.188 395.591C597.261 394.617 597.407 393.649 597.54 392.682C598.451 386.674 598.928 380.62 598.969 374.556C598.949 372.547 598.811 370.54 598.557 368.544C599.25 368.385 599.879 368.051 600.371 367.582C600.963 366.885 600.81 365.905 600.803 365.015C600.803 362.887 601.793 360.879 602.591 358.871C603.614 356.102 604.453 353.279 605.103 350.419C605.79 348.114 606.165 345.742 606.219 343.355C606.219 343.115 606.206 342.874 606.18 342.634C606.43 342.477 606.639 342.271 606.791 342.033C606.964 341.68 607.072 341.304 607.11 340.92C607.349 339.387 607.595 337.848 607.834 336.309C608.012 335.207 608.187 334.107 608.359 333.009L610.473 319.669C610.652 318.509 610.838 317.354 611.018 316.2L611.569 312.749C611.629 312.34 611.696 311.932 611.742 311.547C613.364 309.094 611.815 305.824 611.642 303.034ZM594.011 352.98C593.227 351.297 592.496 349.571 592.682 347.756H592.609C592.784 347.197 592.754 346.602 592.523 346.06C592.317 345.621 591.958 345.249 591.739 344.81C591.503 344.274 591.381 343.703 591.38 343.127C591.215 339.47 591.534 335.809 592.33 332.221C592.416 331.801 592.509 331.374 592.596 330.953C592.875 330.807 593.13 330.627 593.353 330.418C593.703 330.057 593.992 329.652 594.211 329.215C594.962 327.851 595.646 326.462 596.278 325.049C596.484 324.592 596.783 324.063 597.294 323.949C597.188 327.466 597.587 331.055 596.005 334.229C595.705 334.741 595.481 335.287 595.34 335.852C595.194 336.748 595.606 337.656 595.46 338.546C595.387 339.009 595.168 339.435 595.081 339.892C595.016 340.117 595.017 340.353 595.084 340.576C595.152 340.8 595.284 341.004 595.467 341.167C595.555 341.223 595.651 341.267 595.753 341.299C595.713 341.54 595.679 341.786 595.653 342.02C595.6 342.513 595.573 342.976 595.54 343.265C595.387 344.735 595.327 346.213 595.36 347.69C595.36 349.283 595.427 350.876 595.4 352.499C595.425 352.965 595.339 353.43 595.148 353.864C595.016 354.087 594.846 354.29 594.643 354.465C594.45 353.924 594.237 353.449 594.011 352.98Z" fill="url(#paint0_linear)"/>
<path d="M541.552 283.225C543.58 282.849 544.27 278.334 543.093 273.139C541.917 267.945 539.319 264.039 537.291 264.415C535.263 264.791 534.573 269.306 535.75 274.501C536.926 279.695 539.524 283.601 541.552 283.225Z" fill="#FBBEBE"/>
<path d="M572.519 476.455C571.974 477.946 572.519 479.81 573.995 480.621C574.592 480.91 575.236 481.112 575.902 481.223C576.803 481.453 577.736 481.568 578.673 481.565C579.823 481.517 580.926 481.108 582.076 480.964C582.208 480.934 582.349 480.951 582.468 481.012C582.525 481.068 582.568 481.135 582.594 481.208C582.619 481.28 582.626 481.357 582.614 481.433C582.626 482.024 582.675 482.614 582.76 483.2C582.761 483.329 582.793 483.457 582.852 483.574C582.912 483.691 582.998 483.795 583.106 483.88C583.272 483.95 583.455 483.979 583.637 483.964H587.239C587.321 481.101 586.975 478.242 586.209 475.463C586.159 475.251 586.069 475.047 585.944 474.862C585.638 474.559 585.236 474.349 584.794 474.261C583.913 473.93 582.962 473.78 582.009 473.822C580.846 473.96 579.876 474.64 578.886 475.205C577.896 475.77 576.547 476.269 575.344 475.98C574.141 475.692 573.137 474.784 572.519 476.455Z" fill="#3F3D56"/>
<path d="M519.633 473.816C518.62 474.797 517.378 475.561 515.998 476.052L515.386 476.317C515.302 476.346 515.229 476.399 515.18 476.467C515.169 476.514 515.168 476.563 515.18 476.609C515.191 476.656 515.214 476.7 515.247 476.738C515.755 477.45 516.507 477.992 517.388 478.281C518.268 478.571 519.229 478.593 520.125 478.343C520.52 478.253 520.887 478.08 521.195 477.838C521.701 477.294 521.991 476.613 522.019 475.902C522.22 475.169 522.185 474.4 521.919 473.684C520.995 471.802 520.656 472.656 519.633 473.816Z" fill="#FBBEBE"/>
<path d="M533.443 481.223C533.463 481.45 533.424 481.678 533.33 481.89C533.017 482.443 532.147 482.413 531.469 482.293C531.366 480.253 531.093 478.223 530.651 476.221C529.362 476.167 528.432 477.273 527.741 478.265L525.96 480.82C525.702 481.26 525.339 481.642 524.896 481.938C524.54 482.114 524.15 482.226 523.747 482.269C520.344 482.78 516.908 481.812 513.625 480.85C513.142 480.732 512.679 480.554 512.25 480.321C511.664 479.932 511.267 479.352 511.143 478.705C511.019 478.057 511.178 477.391 511.585 476.846C512.961 475.163 516.051 475.644 517.765 474.249C517.587 475.23 517.292 476.192 516.888 477.117C519.181 476.804 520.723 474.904 522.57 473.636C523.034 473.28 523.593 473.039 524.192 472.938C524.64 472.904 525.091 472.947 525.521 473.065C527.651 473.55 529.644 474.437 531.369 475.668C532.067 476.167 533.157 476.87 533.463 477.64C533.788 478.559 533.443 480.243 533.443 481.223Z" fill="#3F3D56"/>
<path d="M579.158 282.871C586.741 282.871 592.888 277.31 592.888 270.451C592.888 263.591 586.741 258.03 579.158 258.03C571.575 258.03 565.428 263.591 565.428 270.451C565.428 277.31 571.575 282.871 579.158 282.871Z" fill="#FBBEBE"/>
<path d="M606.206 343.782C606.151 346.156 605.778 348.516 605.096 350.81C604.446 353.658 603.607 356.469 602.584 359.226C601.793 361.228 600.803 363.236 600.81 365.358C600.81 366.242 600.969 367.222 600.371 367.919C599.839 368.409 599.167 368.756 598.431 368.923C598.063 369.011 597.724 369.176 597.44 369.405C597.156 369.634 596.935 369.92 596.796 370.24C596.172 369.396 595.705 368.466 595.414 367.486C594.222 364.184 593.114 360.863 592.091 357.525C591.997 357.333 591.957 357.123 591.973 356.913C591.989 356.704 592.062 356.501 592.184 356.322C592.352 356.19 592.549 356.09 592.762 356.028C593.443 355.777 594.067 355.414 594.603 354.958C594.854 354.756 595.062 354.513 595.214 354.242C595.407 353.812 595.496 353.348 595.473 352.884C595.473 351.291 595.473 349.703 595.427 348.11C595.399 346.64 595.461 345.168 595.613 343.704C595.613 343.415 595.673 342.952 595.726 342.459C595.826 341.515 596.025 340.421 596.59 340.055C597.434 339.544 599.959 340.229 600.916 340.349C602.564 340.554 604.239 340.794 605.847 341.077C606.081 341.963 606.201 342.871 606.206 343.782Z" fill="#3F3D56"/>
<path d="M550.768 284.356C550.236 285.318 548.96 285.781 547.977 286.388L544.607 288.48C544.382 288.663 544.118 288.804 543.832 288.893C543.545 288.981 543.242 289.017 542.939 288.997C542.665 288.905 542.414 288.765 542.201 288.584C541.987 288.404 541.816 288.186 541.697 287.945C541.699 287.929 541.699 287.913 541.697 287.897L540.999 286.839L537.676 281.801C537.306 281.35 537.092 280.81 537.058 280.25C537.058 279.991 537.158 279.751 537.184 279.492C537.193 278.766 536.962 278.054 536.52 277.448C536.254 276.997 535.722 276.625 535.735 276.12C535.71 275.456 535.837 274.795 536.108 274.178C536.456 273.607 536.956 273.124 537.563 272.771C537.875 272.567 538.194 272.374 538.527 272.17C538.703 272.061 538.898 271.98 539.105 271.93C539.656 271.827 540.201 272.242 540.76 272.26C543.159 273.715 544.082 276.468 545.97 278.452C547.033 279.582 547.139 280.448 548.342 281.458C548.535 281.614 548.721 281.783 548.9 281.957C549.138 282.192 549.34 282.455 549.499 282.739C549.718 283.256 551.04 283.863 550.768 284.356Z" fill="#3F3D56"/>
<path d="M574.333 282.877C575.324 284.771 576.095 286.851 575.809 288.931C575.75 289.494 575.553 290.039 575.231 290.524C574.274 291.852 572.267 292.093 570.519 292.171C570.151 292.143 569.78 292.182 569.428 292.285C569.077 292.388 568.752 292.554 568.472 292.772C568.238 293.079 568.124 293.448 568.147 293.82C568.17 294.192 568.329 294.547 568.598 294.828C569.16 295.371 569.857 295.783 570.632 296.031C573.396 297.131 576.38 298.038 579.384 297.786C580.78 297.666 582.135 297.299 583.524 297.113C585.039 296.964 586.56 296.888 588.083 296.884C589.891 296.824 591.692 296.662 593.493 296.499L598.265 296.073C598.525 296.076 598.778 295.993 598.976 295.838C599.328 295.465 598.876 294.918 598.437 294.636C595.905 292.941 592.682 291.774 591.24 289.225C590.575 288.023 590.369 286.592 589.878 285.294C589.386 283.995 588.602 282.823 588.296 281.5C588.133 280.34 588.06 279.171 588.077 278.001C588.093 276.822 587.619 275.68 586.748 274.803C585.797 274.004 584.422 273.799 583.132 273.751C579.956 273.625 576.573 274.31 574.32 276.336C573.715 276.883 573.197 277.538 572.572 278.031C571.948 278.524 571.097 278.669 571.509 279.318C571.921 279.967 572.732 280.37 573.17 280.941C573.614 281.557 574.003 282.205 574.333 282.877V282.877Z" fill="#FBBEBE"/>
<path d="M601.401 300.365C600.563 304.994 599.2 309.533 597.334 313.91C596.396 315.886 595.597 317.914 594.942 319.981C594.43 321.845 594.53 323.841 594.058 325.711C593.473 328.037 592.888 330.37 592.416 332.714C591.625 336.295 591.308 339.947 591.473 343.596C591.474 344.17 591.596 344.739 591.832 345.273C592.051 345.706 592.403 346.078 592.609 346.523C592.763 346.914 592.826 347.329 592.794 347.743C592.762 348.157 592.636 348.56 592.423 348.928C592.082 349.616 591.62 350.25 591.054 350.804C584.86 352.475 578.235 351.928 571.782 352.283C565.834 352.607 559.819 353.713 553.958 352.794C553.293 350.389 554.403 347.87 555.353 345.525C558.111 338.714 561.162 331.62 560.67 324.484C560.618 323.652 560.514 322.823 560.358 322.001C559.394 316.945 560.444 311.709 562.125 306.81C563.169 303.756 563.122 300.503 562.883 297.323C562.765 296.29 562.749 295.25 562.836 294.215C562.933 293.158 563.367 292.149 564.086 291.311C564.086 291.269 564.146 291.227 564.179 291.185C564.212 291.143 564.471 291.149 564.677 291.185C564.73 291.205 564.786 291.216 564.843 291.216C564.901 291.216 564.957 291.205 565.01 291.185L565.083 291.143C565.111 291.125 565.145 291.115 565.179 291.115C565.214 291.115 565.247 291.125 565.275 291.143C565.428 291.227 565.515 291.516 565.847 291.57C566.338 291.637 566.833 291.679 567.329 291.696C567.926 291.712 568.519 291.789 569.097 291.925H569.176C570.041 292.056 570.928 291.988 571.755 291.726C572.305 291.602 572.837 291.416 573.337 291.173C573.483 291.029 574.4 290.897 574.586 290.794C575.191 290.464 575.058 288.913 575.184 288.275C575.254 287.636 575.422 287.009 575.683 286.412C575.985 285.971 576.403 285.604 576.899 285.343C577.395 285.082 577.954 284.935 578.527 284.915C579.671 284.89 580.815 284.983 581.936 285.191C584.415 285.51 586.954 285.456 589.386 285.973C590.609 286.231 591.945 286.622 593.068 286.117C593.373 286.183 593.42 286.424 593.42 286.718C593.391 286.998 593.329 287.274 593.234 287.542C592.809 289.201 594.251 290.728 595.58 291.931C596.141 292.497 596.804 292.975 597.54 293.343C598.205 293.62 598.869 293.734 599.534 294.035C600.072 294.294 600.529 294.673 600.863 295.135C601.246 295.665 601.504 296.26 601.621 296.884C601.763 298.047 601.689 299.224 601.401 300.365Z" fill="#3F3D56"/>
<path opacity="0.1" d="M601.401 300.365C600.563 304.994 599.2 309.533 597.334 313.91C596.396 315.886 595.597 317.914 594.942 319.981C594.43 321.845 594.53 323.841 594.058 325.711C593.473 328.037 592.888 330.37 592.416 332.714C592.277 332.786 592.131 332.853 591.984 332.913C591.158 333.27 590.281 333.525 589.379 333.67C587.759 333.848 586.119 333.799 584.515 333.526L575.031 332.378C571.243 331.915 567.209 331.356 564.398 329.035C562.836 327.761 561.813 326.077 560.69 324.454C560.638 323.622 560.534 322.793 560.378 321.971C559.414 316.915 560.464 311.679 562.145 306.78C563.189 303.726 563.142 300.473 562.903 297.293C562.784 296.26 562.769 295.22 562.856 294.185C562.953 293.128 563.387 292.119 564.106 291.281C564.3 291.23 564.497 291.19 564.697 291.161V291.161C564.831 291.137 564.966 291.121 565.103 291.113H565.295C565.519 291.114 565.742 291.138 565.96 291.185C566.413 291.316 566.857 291.47 567.289 291.648H567.369C567.939 291.818 568.537 291.895 569.137 291.876C570.014 291.876 570.918 291.75 571.795 291.696C572.878 291.543 573.988 291.723 574.945 292.207C575.563 292.656 576.149 293.14 576.699 293.656C577.364 294.128 578.112 294.496 578.912 294.744C584.633 296.719 590.98 296.599 596.603 294.407C597.143 294.13 597.756 293.988 598.378 293.999C598.836 294.08 599.271 294.248 599.654 294.492C600.052 294.702 600.444 294.906 600.85 295.093C601.233 295.622 601.491 296.218 601.607 296.842C601.76 298.019 601.69 299.21 601.401 300.365V300.365Z" fill="black"/>
<path d="M607.19 296.385C604.543 295.654 602.001 294.645 599.614 293.379C599.23 293.137 598.796 292.97 598.338 292.886C597.715 292.88 597.101 293.021 596.557 293.295C590.935 295.486 584.591 295.607 578.872 293.632C578.074 293.382 577.326 293.014 576.659 292.544C576.107 292.03 575.521 291.546 574.905 291.095C572.719 289.814 569.695 291.317 567.249 290.494C566.815 290.318 566.372 290.164 565.92 290.031C563.986 289.592 562.019 291.335 560.118 290.806C559.411 292.545 558.888 294.341 558.557 296.169C558.286 298.268 558.142 300.38 558.125 302.493C558.125 303.762 558.058 305.03 558.125 306.299C558.359 306.333 558.583 306.412 558.782 306.529C558.981 306.645 559.151 306.799 559.281 306.978C559.368 307.187 559.404 307.412 559.386 307.635C559.367 307.858 559.295 308.075 559.175 308.27C557.786 311.499 556.377 314.763 554.27 317.655C555.755 318.455 557.133 319.407 558.377 320.492C560.703 322.717 561.846 325.837 564.358 327.893C567.189 330.207 571.223 330.772 574.991 331.229L584.475 332.378C586.081 332.65 587.723 332.7 589.346 332.528C590.246 332.379 591.12 332.123 591.945 331.764C592.483 331.561 592.975 331.267 593.393 330.899C593.744 330.539 594.033 330.134 594.251 329.696C595.002 328.338 595.686 326.949 596.317 325.542C596.537 325.043 596.869 324.46 597.467 324.418C600.989 321.544 604.312 318.599 607.834 315.725C609.25 314.664 610.519 313.453 611.616 312.118C613.364 309.779 611.775 306.467 611.616 303.641C611.596 302.919 611.496 302.2 611.317 301.495C610.745 299.445 609.403 296.992 607.19 296.385Z" fill="#924914"/>
<path opacity="0.1" d="M550.768 284.356C550.236 285.318 548.96 285.781 547.977 286.388L544.607 288.48C544.382 288.663 544.118 288.804 543.832 288.893C543.545 288.981 543.242 289.017 542.939 288.997C542.665 288.905 542.414 288.765 542.201 288.584C541.987 288.404 541.816 288.186 541.697 287.945C541.697 287.806 541.697 287.656 541.697 287.512C541.671 287.025 541.743 286.539 541.909 286.075C542.239 285.395 542.751 284.8 543.398 284.344C544.649 283.272 546.137 282.452 547.764 281.939C548.018 281.85 548.293 281.825 548.562 281.867C548.665 281.891 548.763 281.93 548.854 281.981C549.092 282.216 549.293 282.479 549.452 282.763C549.718 283.256 551.04 283.863 550.768 284.356Z" fill="black"/>
<path d="M558.703 290.692C557.573 290.644 556.649 289.905 555.825 289.201L553.307 287.085C553.138 286.956 552.99 286.806 552.868 286.64C552.732 286.406 552.629 286.158 552.562 285.901C552.028 284.686 551.191 283.6 550.117 282.727C549.929 282.511 549.678 282.349 549.392 282.258C549.122 282.213 548.843 282.238 548.588 282.33C546.961 282.842 545.472 283.662 544.222 284.735C543.575 285.191 543.064 285.786 542.733 286.466C542.566 286.929 542.494 287.416 542.521 287.903C542.536 289.491 542.931 291.058 543.677 292.496C543.79 292.718 543.916 292.941 544.049 293.157C544.936 294.483 545.984 295.715 547.173 296.83L548.754 298.429C550.309 300.004 551.864 301.579 553.552 303.028C554.158 303.612 554.891 304.075 555.706 304.387C556.115 304.538 556.562 304.584 556.998 304.521C557.434 304.457 557.842 304.286 558.178 304.026C558.496 303.693 558.736 303.304 558.882 302.884C559.906 300.479 560.876 297.978 560.936 295.387C560.95 294.35 560.901 293.312 560.79 292.279C560.69 291.185 559.833 290.758 558.703 290.692Z" fill="#924914"/>
<path d="M598.976 374.857C598.937 380.904 598.462 386.943 597.554 392.934C597.421 393.902 597.274 394.87 597.201 395.838C596.982 398.645 597.341 401.465 597.048 404.254C596.896 405.763 596.55 407.26 596.258 408.733C594.959 415.307 594.579 422.002 595.128 428.662C596.045 439.741 593.234 450.827 594.51 461.877C594.664 464.025 594.533 466.183 594.118 468.303C593.88 469.619 593.536 470.917 593.088 472.187C592.117 475.197 591.143 478.203 590.164 481.205C590.048 481.661 589.821 482.088 589.499 482.455C589.16 482.72 588.762 482.917 588.333 483.032C587.903 483.147 587.451 483.178 587.007 483.122C583.172 483.014 579.564 481.517 576.081 480.056C575.681 479.913 575.31 479.71 574.985 479.455C574.26 478.776 574.32 477.706 574.001 476.81C573.682 475.914 572.818 475.073 572.326 474.153C571.922 473.283 571.677 472.359 571.602 471.417C571.159 468.339 570.858 465.249 570.698 462.147C570.446 457.783 573.636 453.767 574.686 449.523C576.679 441.178 574.991 432.233 578.534 424.315C579.65 421.814 578.028 418.785 577.869 416.091C577.812 414.354 577.562 412.626 577.125 410.933C576.46 408.673 575.058 406.545 574.958 404.2C574.885 402.505 575.49 400.851 575.802 399.18C576.217 396.721 576.178 394.216 575.689 391.768C575.337 389.748 574.799 387.728 574.26 385.756L574.141 385.978C572.522 388.841 571.129 391.804 569.974 394.846C569.442 396.319 568.977 397.822 568.313 399.252C567.768 400.455 567.096 401.555 566.438 402.685C564.079 406.671 562.025 410.799 560.291 415.039C559.467 417.119 558.743 419.247 558.025 421.333L553.101 435.762C551.771 439.555 550.316 443.222 549.013 447.01C547.173 452.42 545.332 457.783 543.192 463.073C541.198 468.093 538.826 473.293 539.537 478.595C537.704 479.375 535.692 479.744 533.669 479.672C530.243 479.397 526.883 478.66 523.7 477.483C522.431 477.056 521.115 476.575 520.258 475.632C518.782 474.002 519.148 471.616 519.593 469.542C519.761 468.607 520.028 467.689 520.39 466.8C520.896 465.694 521.72 464.714 522.238 463.62C523.281 461.522 523.348 459.147 523.76 456.869C524.172 454.59 525.089 452.186 527.242 450.947C527.608 446.944 529.429 442.994 530.432 439.08C531.19 436.116 531.442 433.068 532.04 430.063C532.638 427.057 533.602 424.051 535.609 421.616C535.451 419.106 536.077 416.605 537.417 414.402C537.74 413.918 538.005 413.404 538.208 412.869C538.331 412.347 538.403 411.816 538.42 411.282C538.64 409.193 539.627 407.231 541.225 405.709C540.56 403.515 541.484 401.224 542.315 399.096C543.361 396.38 543.834 393.511 543.71 390.637C543.607 389.835 543.65 389.023 543.836 388.233C544.023 387.632 544.388 387.121 544.601 386.543C544.79 385.837 544.891 385.113 544.9 384.385C545.159 381.133 546.614 378.067 548.223 375.163C549.18 373.468 548.369 371.165 548.568 369.278C548.914 366.14 549.293 362.893 551.014 360.158C551.333 359.641 551.678 359.148 551.964 358.613C552.31 357.849 552.497 357.034 552.516 356.208C552.576 354.831 552.788 353.689 552.243 352.409C555.799 349.734 560.65 348.982 565.275 348.802C569.901 348.621 574.579 349 579.105 348.11C580.434 347.84 581.763 347.467 583.166 347.287C586.349 346.866 589.579 347.521 592.722 348.17C592.503 349.974 593.234 351.705 594.051 353.383C597.243 360.177 598.916 367.475 598.976 374.857V374.857Z" fill="#33313F"/>
<path opacity="0.1" d="M583.325 376.233L575.689 391.768C575.337 389.748 574.799 387.728 574.26 385.756L574.141 385.978V385.654L578.301 377.376L583.325 376.233Z" fill="black"/>
<path opacity="0.1" d="M606.206 343.782C605.766 344.08 605.24 344.257 604.691 344.293C603.849 344.32 603.009 344.216 602.206 343.986L596.224 342.634C596.037 342.592 595.854 342.533 595.679 342.459C595.779 341.515 595.978 340.421 596.543 340.055C597.387 339.544 599.913 340.229 600.87 340.349C602.518 340.554 604.193 340.794 605.801 341.077C606.05 341.961 606.186 342.869 606.206 343.782V343.782Z" fill="black"/>
<path d="M611.264 308.012C611.39 308.511 611.569 309.004 611.676 309.509C611.854 310.748 611.807 312.005 611.536 313.23L610.991 316.669L610.446 320.126L608.339 333.43L607.821 336.724L607.09 341.323C607.056 341.706 606.948 342.08 606.771 342.429C606.553 342.756 606.249 343.029 605.886 343.223C605.523 343.417 605.112 343.526 604.691 343.541C603.849 343.566 603.009 343.462 602.205 343.235L596.224 341.876C595.962 341.834 595.713 341.742 595.493 341.606C595.311 341.444 595.179 341.241 595.111 341.019C595.043 340.796 595.042 340.561 595.108 340.337C595.194 339.88 595.414 339.453 595.487 338.997C595.633 338.107 595.221 337.193 595.367 336.309C595.51 335.747 595.734 335.203 596.032 334.692C598.025 330.706 596.869 326.053 597.547 321.725C598.157 318.318 599.748 315.117 602.159 312.443C603.647 310.755 605.356 309.237 607.25 307.922C607.994 307.399 609.177 306.323 610.114 306.118C611.317 305.89 611.064 307.255 611.264 308.012Z" fill="#924914"/>
<path d="M566 256.227C565.561 257.489 566.246 258.878 565.933 260.164C565.594 261.583 564.119 262.569 563.7 263.994C563.036 266.164 565.069 268.142 566.558 269.946C572.074 276.643 571.35 285.913 569.462 294.083C567.944 300.638 565.843 307.071 563.182 313.32C562.351 315.262 561.434 317.234 559.799 318.689C562.856 317.895 566.106 317.096 569.17 317.865C573.051 318.839 576.4 322.248 580.335 321.472C582.7 320.997 584.362 319.098 586.488 318.046C590.476 316.104 595.281 317.324 599.727 317.949C600.685 318.154 601.687 318.108 602.618 317.817C603.329 317.471 603.932 316.969 604.372 316.356C606.356 314.054 607.544 311.272 607.788 308.361C607.893 306.911 607.657 305.458 607.094 304.097C606.531 302.736 605.656 301.499 604.525 300.467C603.581 299.662 602.451 299.012 601.727 298.063C601.022 296.953 600.645 295.699 600.63 294.419C600.105 287.807 601.887 281.055 600.052 274.659C599.388 272.38 598.304 270.198 598.012 267.866C597.647 264.962 598.517 261.854 597.241 259.197C596.238 257.086 594.025 255.59 591.639 254.82C589.253 254.051 586.701 253.834 584.169 253.618C580.527 253.341 567.522 251.928 566 256.227Z" fill="#33313F"/>
<g opacity="0.1">
<path opacity="0.1" d="M569.462 294.083C567.951 300.61 565.862 307.018 563.215 313.242C563.674 312.419 564.059 311.553 564.425 310.693C567.089 304.445 569.189 298.011 570.705 291.456C572.599 283.28 573.323 274.022 567.807 267.318C566.478 265.719 564.77 263.988 564.83 262.112C564.339 262.68 563.957 263.318 563.7 264C563.036 266.17 565.069 268.148 566.558 269.952C572.074 276.643 571.35 285.913 569.462 294.083Z" fill="black"/>
<path opacity="0.1" d="M566.013 259.557C566.546 258.958 566.944 258.27 567.183 257.531C567.285 256.638 567.259 255.737 567.103 254.85C566.591 255.199 566.207 255.678 566 256.227C565.608 257.291 566.06 258.445 566.013 259.557Z" fill="black"/>
<path opacity="0.1" d="M605.621 313.711C605.181 314.322 604.578 314.822 603.867 315.166C602.938 315.463 601.933 315.509 600.976 315.298C596.53 314.697 591.672 313.459 587.738 315.4C585.605 316.446 583.95 318.346 581.577 318.827C577.65 319.621 574.3 316.212 570.419 315.22C567.668 314.529 564.77 315.1 561.999 315.821C561.448 316.884 560.705 317.855 559.799 318.695C562.856 317.901 566.106 317.102 569.17 317.871C573.051 318.845 576.4 322.254 580.335 321.478C582.7 321.003 584.362 319.104 586.488 318.052C590.476 316.11 595.281 317.33 599.727 317.955C600.685 318.16 601.687 318.114 602.618 317.823C603.329 317.477 603.932 316.975 604.372 316.362C605.576 314.925 606.506 313.316 607.123 311.601C606.679 312.336 606.177 313.041 605.621 313.711Z" fill="black"/>
</g>
</g>
<defs>
<linearGradient id="paint0_linear" x1="510.787" y1="368.172" x2="612.466" y2="368.172" gradientUnits="userSpaceOnUse">
<stop stop-color="#808080" stop-opacity="0.25"/>
<stop offset="0.54" stop-color="#808080" stop-opacity="0.12"/>
<stop offset="1" stop-color="#808080" stop-opacity="0.1"/>
</linearGradient>
<clipPath id="clip0">
<rect width="775" height="484" fill="white"/>
</clipPath>
</defs>
</svg>
