<svg width="720" height="478" viewBox="0 0 720 478" fill="none" xmlns="http://www.w3.org/2000/svg">
<g clip-path="url(#clip0)">
<path d="M75.557 439.227L74.4103 438.723C74.1583 438.612 49.0786 427.356 37.3302 401.835C25.5813 376.312 31.3342 345.582 31.3937 345.275L31.6644 343.876L32.8106 344.379C33.0626 344.49 58.1418 355.746 69.8908 381.268C81.6397 406.791 75.8868 437.521 75.8273 437.827L75.557 439.227ZM39.2116 400.647C49.1444 422.225 68.9632 433.287 73.9846 435.812C74.9394 429.508 77.9335 404.014 68.0095 382.456C58.0865 360.9 38.2599 349.822 33.2364 347.291C32.2811 353.599 29.2881 379.09 39.2116 400.647Z" fill="#3F3D56"/>
<path d="M47.2137 395.002C68.3271 409.882 76.4586 439.437 76.4586 439.437C76.4586 439.437 50.3584 444.867 29.2449 429.987C8.13144 415.108 0 385.553 0 385.553C0 385.553 26.1002 380.123 47.2137 395.002Z" fill="#924914"/>
<path d="M174.984 404.149C174.984 443.374 150.066 441.25 119.33 441.25C88.5926 441.25 63.6754 443.374 63.6754 404.149C63.6754 364.924 88.5926 299.205 119.33 299.205C150.066 299.205 174.984 364.924 174.984 404.149Z" fill="#3F3D56"/>
<path d="M671.798 440.19H27.4776V442.31H671.798V440.19Z" fill="#3F3D56"/>
<path d="M305.859 80.2448C305.83 80.1339 305.798 80.0215 305.768 79.9102C305.781 79.959 305.797 80.0059 305.81 80.0549L305.859 80.2448Z" fill="#2F2E41"/>
<path d="M202.925 341.481L183.921 362.682L168.537 343.601L192.065 329.82L202.925 341.481Z" fill="#A0616A"/>
<path d="M178.434 345.669C178.434 345.669 201.456 343.907 198.765 351.78C196.074 359.653 201.778 388.591 201.778 388.591C201.778 388.591 210.333 440.562 183.284 419.882C156.235 399.201 162.121 384.834 162.121 384.834C162.121 384.834 154.227 370.855 155.909 365.935C157.591 361.014 170.958 342.118 173.519 344.484C174.179 345.166 174.98 345.635 175.842 345.843C176.704 346.051 177.597 345.991 178.434 345.669Z" fill="#2F2E41"/>
<path d="M170.347 257.738C170.347 257.738 271.701 248.197 279.845 272.578C287.99 296.959 271.701 314.98 271.701 314.98L205.64 353.141L184.57 331.063L196.59 318.16C196.59 318.16 128.719 333.001 126.909 321.34C125.099 309.68 134.149 248.197 170.347 257.738Z" fill="#2F2E41"/>
<path d="M287.99 278.939C287.99 278.939 306.088 338.301 287.99 335.121C269.891 331.94 271.701 284.239 271.701 284.239L287.99 278.939Z" fill="#A0616A"/>
<path d="M247.719 157.564C247.719 157.564 259.031 164.454 257.221 172.935C255.411 181.415 264.461 234.417 264.461 234.417L291.609 281.059L268.986 290.599C268.986 290.599 240.027 268.338 235.503 252.438C230.978 236.537 224.643 212.156 224.643 212.156L247.719 157.564Z" fill="#D0CDE1"/>
<path d="M241.837 132.653C258.33 132.653 271.701 116.992 271.701 97.6719C271.701 78.3523 258.33 62.6906 241.837 62.6906C225.344 62.6906 211.974 78.3523 211.974 97.6719C211.974 116.992 225.344 132.653 241.837 132.653Z" fill="#A0616A"/>
<path d="M244.1 122.583C244.1 122.583 240.48 157.564 242.29 171.345C244.1 185.125 206.092 121.523 206.092 121.523C206.092 121.523 222.381 107.742 222.381 102.442C222.381 97.1419 244.1 122.583 244.1 122.583Z" fill="#A0616A"/>
<path d="M277.972 84.2153C275.07 83.8104 272.137 83.8342 269.241 84.2861C266.318 84.758 263.654 86.5021 261.779 89.1711C259.714 92.4101 259.027 97.3301 255.791 98.7346C253.862 99.5715 251.629 98.7751 249.699 99.6079C247.382 100.608 246.206 103.608 245.59 106.409C244.974 109.209 244.616 112.242 243.039 114.467C241.461 116.692 238.065 117.44 236.669 115.055C236.926 112.497 236.814 109.906 236.337 107.391C236.086 106.135 235.573 104.972 234.843 104.007C234.113 103.042 233.189 102.305 232.155 101.863C228.599 100.657 225.288 104.276 222.894 107.584C220.499 110.891 217.292 114.58 213.697 113.545C209.924 112.458 208.636 107.022 208.221 102.497C207.274 92.188 207.415 81.2417 211.671 72.151C217.831 58.994 231.892 52.6088 244.58 54.6718C257.269 56.7347 268.469 66.013 276.654 77.5559C277.985 79.4321 279.294 81.4936 279.58 83.9097" fill="#2F2E41"/>
<path d="M239.575 163.924L229.621 152.264L212.427 111.982L166.274 128.943C166.274 128.943 149.985 134.243 140.031 168.164C140.031 168.164 80.3046 258.268 90.259 273.108C100.213 287.949 102.023 286.889 118.312 275.228C128.532 268.02 139.474 262.323 150.89 258.268L194.328 263.568L220.571 225.407C220.571 225.407 259.484 195.725 253.149 161.804L242.29 144.844L239.575 163.924Z" fill="#575A89"/>
<path d="M232.788 270.458L238.218 274.698C238.218 274.698 268.081 318.16 253.602 326.64C239.122 335.121 224.643 284.239 224.643 284.239L232.788 270.458Z" fill="#A0616A"/>
<path d="M191.751 130.12C192.83 130.214 193.88 130.572 194.834 131.169C195.788 131.766 196.625 132.59 197.292 133.588C200.882 138.939 206.233 151.524 198.4 172.935C192.045 190.08 186.9 207.807 183.016 225.937C183.016 225.937 187.541 224.877 187.541 229.117C187.541 233.357 183.921 231.237 187.541 233.357C191.16 235.477 190.255 232.297 191.16 235.477C192.106 238.798 191.077 238.651 193.228 239.865C195.39 241.263 197.274 243.182 198.756 245.496C199.163 246.13 199.654 246.684 200.21 247.137L233.693 267.278C233.693 267.278 238.218 288.479 224.643 288.479C224.643 288.479 141.388 260.918 143.198 239.717C144.968 218.99 148.467 126.324 191.751 130.12Z" fill="#D0CDE1"/>
<path d="M173.967 397.663V425.224L148.628 423.104L154.058 395.543L173.967 397.663Z" fill="#A0616A"/>
<path d="M155.868 410.383C155.868 410.383 176.681 398.723 176.681 407.203C176.681 415.684 191.16 440.064 191.16 440.064C191.16 440.064 215.594 484.586 183.921 477.166C152.248 469.746 153.153 453.845 153.153 453.845C153.153 453.845 141.388 444.305 141.388 439.004C141.388 433.704 147.801 410.342 150.929 411.423C151.758 411.769 152.65 411.855 153.517 411.673C154.383 411.491 155.193 411.046 155.868 410.383Z" fill="#2F2E41"/>
<path d="M130.529 259.858C130.529 259.858 194.78 242.897 192.065 270.458C189.35 298.019 186.636 313.92 186.636 313.92L175.776 404.023L150.438 400.843L148.628 383.882C148.628 383.882 143.198 377.522 145.913 373.282C148.628 369.042 141.388 327.7 141.388 327.7C141.388 327.7 97.9511 338.301 94.3313 307.56C90.7115 276.818 99.761 267.278 99.761 267.278L130.529 259.858Z" fill="#2F2E41"/>
<path d="M540.821 358.578H378.721V360.712H540.821V358.578Z" fill="#3F3D56"/>
<path d="M540.821 373.513H378.721V375.646H540.821V373.513Z" fill="#3F3D56"/>
<path d="M540.821 388.447H378.721V390.581H540.821V388.447Z" fill="#3F3D56"/>
<path d="M418.478 304.989H382.018V339.69H418.478V304.989Z" fill="#D0CDE1"/>
<path d="M413.161 334.352H375.181V297.871H413.161V334.352ZM376.701 332.572H411.642V299.65H376.701V332.572Z" fill="#3F3D56"/>
<path d="M345.907 324.963C349.905 324.963 353.146 321.167 353.146 316.483C353.146 311.799 349.905 308.003 345.907 308.003C341.909 308.003 338.667 311.799 338.667 316.483C338.667 321.167 341.909 324.963 345.907 324.963Z" fill="#924914"/>
<path d="M540.821 60.7075H378.721V62.841H540.821V60.7075Z" fill="#3F3D56"/>
<path d="M540.821 75.642H378.721V77.7755H540.821V75.642Z" fill="#3F3D56"/>
<path d="M540.821 90.5765H378.721V92.71H540.821V90.5765Z" fill="#3F3D56"/>
<path d="M418.478 7.11821H382.018V41.8195H418.478V7.11821Z" fill="#D0CDE1"/>
<path d="M413.161 36.4808H375.181V0H413.161V36.4808ZM376.701 34.7013H411.642V1.77955H376.701V34.7013Z" fill="#3F3D56"/>
<path d="M345.907 27.0925C349.905 27.0925 353.146 23.2957 353.146 18.6121C353.146 13.9286 349.905 10.1318 345.907 10.1318C341.909 10.1318 338.667 13.9286 338.667 18.6121C338.667 23.2957 341.909 27.0925 345.907 27.0925Z" fill="#924914"/>
<path d="M720 231.374H557.9V233.507H720V231.374Z" fill="#3F3D56"/>
<path d="M720 246.308H557.9V248.442H720V246.308Z" fill="#3F3D56"/>
<path d="M720 261.243H557.9V263.376H720V261.243Z" fill="#3F3D56"/>
<path d="M597.657 177.784H561.197V212.486H597.657V177.784Z" fill="#D0CDE1"/>
<path d="M592.34 207.147H554.36V170.666H592.34V207.147ZM555.88 205.368H590.821V172.446H555.88V205.368Z" fill="#3F3D56"/>
<path d="M525.086 197.759C529.084 197.759 532.326 193.962 532.326 189.278C532.326 184.595 529.084 180.798 525.086 180.798C521.088 180.798 517.846 184.595 517.846 189.278C517.846 193.962 521.088 197.759 525.086 197.759Z" fill="#924914"/>
</g>
<defs>
<clipPath id="clip0">
<rect width="720" height="478" fill="white"/>
</clipPath>
</defs>
</svg>
